# Blender 5.1.1
# www.blender.org
mtllib door1.mtl
o defaultMaterial.001
v 0.777986 0.715879 -0.029997
v 0.493866 0.983314 -0.029997
v 0.493866 0.983314 0.030003
v 0.777986 0.715879 0.030003
v -0.823461 0.715879 -0.029997
v -0.539340 0.983314 0.030003
v -0.539340 0.983314 -0.029997
v -0.823461 0.715879 0.030003
v 0.119641 -0.507456 0.030003
v 0.777986 -1.000000 0.030003
v 0.618224 -0.507456 0.030003
v -0.823461 -1.000000 0.030003
v -0.823461 0.715879 -0.029997
v 0.777986 0.715879 -0.029997
v 0.119641 0.286882 -0.029997
v 0.618224 0.286882 -0.029997
v 0.777986 -1.000000 -0.029997
v -0.823461 -1.000000 -0.029997
v 0.119641 -0.507456 -0.029997
v 0.618224 -0.507456 -0.029997
v 0.777986 -0.160664 0.030003
v 0.618224 0.286882 0.030003
v 0.777986 -0.160664 -0.029997
v 0.144218 0.276196 0.060003
v 0.618224 0.286882 0.030003
v 0.119641 0.286882 0.030003
v 0.593647 0.276196 0.060003
v 0.119641 -0.507456 0.030003
v 0.130327 0.262304 0.060003
v 0.130327 -0.482879 0.060003
v 0.618224 -0.507456 0.030003
v 0.144217 -0.496769 0.060003
v 0.593647 -0.496769 0.060003
v 0.607538 -0.482879 0.060003
v 0.607538 0.262305 0.060003
v 0.618224 -0.507456 0.030003
v 0.618224 0.286882 -0.029997
v 0.144218 0.276196 -0.059997
v 0.119641 0.286882 -0.029997
v 0.593647 0.276196 -0.059997
v 0.607538 -0.482879 -0.059997
v 0.607538 0.262305 -0.059997
v 0.618224 -0.507456 -0.029997
v 0.593647 -0.496769 -0.059997
v 0.119641 -0.507456 -0.029997
v 0.144217 -0.496769 -0.059997
v 0.130327 0.262304 -0.059997
v 0.119641 -0.507456 -0.029997
v 0.130327 -0.482879 -0.059997
v 0.593647 -0.496769 0.060003
v 0.144217 -0.496769 -0.059997
v 0.590886 0.269529 0.022233
v 0.600871 0.259544 -0.022233
v 0.600871 0.259544 0.022233
v 0.590886 0.269529 -0.022233
v 0.146980 0.269529 0.022233
v 0.146979 0.269529 -0.022233
v 0.136994 0.259543 0.022233
v 0.136994 0.259543 -0.022233
v 0.136994 -0.480118 -0.022233
v 0.136994 -0.480118 0.022233
v 0.136994 -0.480118 -0.022233
v 0.146979 -0.490103 0.022233
v 0.146979 -0.490103 -0.022233
v 0.136994 -0.480118 0.022233
v 0.590886 -0.490103 -0.022233
v 0.590886 -0.490103 0.022233
v 0.600871 -0.480118 0.022233
v 0.600871 -0.480118 -0.022233
v 0.593647 0.276196 -0.025567
v 0.593647 0.276196 -0.059997
v 0.607538 0.262305 -0.025567
v 0.607538 0.262305 -0.059997
v 0.593647 0.276196 0.060003
v 0.593647 0.276196 0.025567
v 0.607538 0.262305 0.060003
v 0.607538 0.262305 0.025567
v 0.144218 0.276196 -0.025567
v 0.144218 0.276196 -0.059997
v 0.144218 0.276196 0.060003
v 0.144218 0.276196 0.025567
v 0.144218 0.276196 -0.025567
v 0.130327 0.262304 -0.059997
v 0.144218 0.276196 -0.059997
v 0.130327 0.262304 -0.025567
v 0.130327 0.262304 0.060003
v 0.130327 0.262304 0.025567
v 0.130327 -0.482879 -0.059997
v 0.130327 -0.482879 -0.025567
v 0.130327 -0.482879 0.025567
v 0.130327 -0.482879 0.060003
v 0.144217 -0.496769 -0.059997
v 0.144217 -0.496769 -0.025567
v 0.144217 -0.496769 0.025567
v 0.144217 -0.496769 0.060003
v 0.593647 -0.496769 -0.059997
v 0.593647 -0.496769 -0.025567
v 0.593647 -0.496769 0.025567
v 0.593647 -0.496769 0.060003
v 0.607538 -0.482879 -0.059997
v 0.607538 -0.482879 -0.025567
v 0.593647 -0.496769 0.025567
v 0.593647 -0.496769 0.060003
v 0.607538 -0.482879 0.025567
v 0.607538 -0.482879 0.060003
v 0.590886 0.269529 -0.022233
v 0.607538 0.262305 -0.025567
v 0.600871 0.259544 -0.022233
v 0.593647 0.276196 -0.025567
v 0.607538 -0.482879 -0.025567
v 0.600871 -0.480118 -0.022233
v 0.593647 -0.496769 -0.025567
v 0.590886 -0.490103 -0.022233
v 0.144217 -0.496769 -0.025567
v 0.146979 -0.490103 -0.022233
v 0.130327 -0.482879 -0.025567
v 0.136994 -0.480118 -0.022233
v 0.136994 0.259543 -0.022233
v 0.130327 0.262304 -0.025567
v 0.146979 0.269529 -0.022233
v 0.144218 0.276196 -0.025567
v 0.600871 0.259544 0.022233
v 0.593647 0.276196 0.025567
v 0.590886 0.269529 0.022233
v 0.607538 0.262305 0.025567
v 0.144218 0.276196 0.025567
v 0.146980 0.269529 0.022233
v 0.136994 0.259543 0.022233
v 0.130327 0.262304 0.025567
v 0.136994 -0.480118 0.022233
v 0.130327 -0.482879 0.025567
v 0.144217 -0.496769 0.025567
v 0.146979 -0.490103 0.022233
v 0.593647 -0.496769 0.025567
v 0.590886 -0.490103 0.022233
v 0.607538 -0.482879 0.025567
v 0.600871 -0.480118 0.022233
v -0.823461 0.715879 -0.029997
v -0.823461 -1.000000 -0.029997
v -0.823461 0.715879 0.030003
v -0.823461 -1.000000 0.030003
v -0.539340 0.983314 0.030003
v 0.493866 0.983314 0.030003
v -0.539340 0.983314 -0.029997
v 0.493866 0.983314 -0.029997
v -0.563319 0.768185 0.030003
v 0.514896 0.768185 0.030003
v -0.470694 0.857548 0.030003
v 0.425220 0.857548 0.030003
v 0.777986 -1.000000 0.030003
v -0.823461 -1.000000 -0.029997
v 0.777986 -1.000000 -0.029997
v -0.823461 -1.000000 0.030003
v -0.281155 -0.380279 0.030003
v -0.037253 -0.380279 0.030003
v -0.037253 -0.097152 0.030003
v -0.046595 -0.348257 0.030003
v -0.046595 -0.129174 0.030003
v -0.254616 -0.150100 0.008309
v -0.063791 -0.150100 0.008309
v -0.090201 -0.123690 0.008309
v -0.228206 -0.123690 0.008309
v -0.823461 0.715879 0.030003
v -0.281155 -0.097152 0.030003
v -0.055794 -0.142103 0.027335
v -0.063791 -0.327331 0.023336
v -0.055794 -0.335328 0.027335
v -0.063791 -0.150100 0.023336
v -0.082204 -0.115693 0.027335
v -0.236203 -0.115693 0.027335
v -0.228206 -0.123690 0.023336
v -0.090201 -0.123690 0.023336
v -0.262614 -0.142103 0.027335
v -0.262614 -0.335328 0.027335
v -0.254616 -0.327331 0.023336
v -0.254616 -0.150100 0.023336
v -0.082204 -0.361738 0.027335
v -0.228206 -0.353741 0.023336
v -0.236203 -0.361738 0.027335
v -0.090201 -0.353741 0.023336
v -0.063791 -0.150100 0.008309
v -0.063791 -0.327331 0.023336
v -0.063791 -0.150100 0.023336
v -0.063791 -0.327331 0.008309
v -0.090201 -0.123690 0.023336
v -0.228206 -0.123690 0.023336
v -0.228206 -0.123690 0.008309
v -0.090201 -0.123690 0.008309
v -0.254616 -0.327331 0.008309
v -0.254616 -0.150100 0.008309
v -0.254616 -0.150100 0.023336
v -0.254616 -0.327331 0.023336
v -0.090201 -0.353741 0.008309
v -0.228206 -0.353741 0.008309
v -0.228206 -0.353741 0.023336
v -0.090201 -0.353741 0.023336
v -0.069275 -0.370940 0.030003
v -0.249133 -0.370940 0.030003
v -0.271815 -0.348257 0.030003
v -0.271815 -0.129174 0.030003
v -0.249133 -0.106667 0.030003
v -0.069275 -0.106667 0.030003
v -0.063791 -0.327331 0.008309
v -0.090201 -0.353741 0.008309
v -0.090201 -0.353741 0.023336
v -0.063791 -0.327331 0.023336
v -0.090201 -0.123690 0.008309
v -0.063791 -0.150100 0.023336
v -0.090201 -0.123690 0.023336
v -0.063791 -0.150100 0.008309
v -0.228206 -0.123690 0.023336
v -0.254616 -0.150100 0.023336
v -0.254616 -0.150100 0.008309
v -0.228206 -0.123690 0.008309
v -0.228206 -0.353741 0.008309
v -0.254616 -0.327331 0.008309
v -0.254616 -0.327331 0.023336
v -0.228206 -0.353741 0.023336
v 0.119641 0.286882 0.030003
v 0.777986 0.715879 0.030003
v -0.055794 -0.142103 0.027335
v -0.052332 -0.341017 0.035173
v -0.052332 -0.136414 0.035173
v -0.055794 -0.335328 0.027335
v -0.241892 -0.365200 0.035173
v -0.076515 -0.365200 0.035173
v -0.082204 -0.361738 0.027335
v -0.236203 -0.361738 0.027335
v -0.262614 -0.335328 0.027335
v -0.262614 -0.142103 0.027335
v -0.266075 -0.136414 0.035173
v -0.266075 -0.341017 0.035173
v -0.241892 -0.112231 0.035173
v -0.082204 -0.115693 0.027335
v -0.076515 -0.112231 0.035173
v -0.236203 -0.115693 0.027335
v -0.046595 -0.348257 0.030003
v -0.069275 -0.370940 0.030003
v -0.271815 -0.348257 0.030003
v -0.249133 -0.370940 0.030003
v -0.249133 -0.106667 0.030003
v -0.271815 -0.129174 0.030003
v -0.069275 -0.106667 0.030003
v -0.046595 -0.129174 0.030003
v 0.777986 -1.000000 0.030003
v 0.777986 -1.000000 -0.029997
v 0.777986 -0.986667 -0.016664
v 0.777986 -0.986667 0.016670
v 0.777986 0.715879 0.030003
v 0.777986 0.678528 0.016670
v 0.777986 0.715879 -0.029997
v 0.777986 0.678528 -0.016664
v 0.777986 0.459455 0.030003
v 0.777986 0.149396 0.030003
v 0.777986 -0.780783 0.030003
v 0.777986 -0.470723 0.030003
v 0.777986 -0.780783 -0.029997
v 0.777986 -0.470723 -0.029997
v 0.777986 0.459455 -0.029997
v 0.777986 0.149395 -0.029997
v 0.777986 0.459455 -0.029997
v 0.777986 0.459025 -0.016664
v 0.777986 0.149395 -0.029997
v 0.777986 0.144866 -0.016664
v 0.777986 -0.160664 -0.029997
v 0.777986 -0.160375 -0.016664
v 0.777986 -0.847166 -0.016664
v 0.777986 -0.780783 -0.029997
v 0.777986 -0.694546 -0.016664
v 0.777986 -0.470723 -0.029997
v 0.777986 -0.541926 -0.016664
v 0.777986 -0.389305 -0.016664
v 0.777986 -0.780783 0.030003
v 0.777986 -0.847166 0.016670
v 0.777986 -0.694546 0.016670
v 0.777986 -0.470723 0.030003
v 0.777986 -0.541926 0.016670
v 0.777986 -0.389305 0.016670
v 0.777986 -0.160375 0.016670
v 0.777986 -0.160664 0.030003
v 0.777986 0.459455 0.030003
v 0.777986 0.459025 0.016670
v 0.777986 0.149396 0.030003
v 0.777986 0.144866 0.016670
v 0.790371 -0.084065 0.016670
v 0.790371 -0.236685 0.016670
v 0.790371 -0.084065 -0.016664
v 0.790371 -0.236685 -0.016664
v 0.843201 -0.880500 0.016670
v 0.843201 -0.953333 -0.016664
v 0.843201 -0.880500 -0.016664
v 0.843201 -0.953333 0.016670
v 0.790371 -0.694546 0.016670
v 0.790371 -0.847166 -0.016664
v 0.790371 -0.694546 -0.016664
v 0.790371 -0.847166 0.016670
v 0.843201 -0.575260 0.016670
v 0.843201 -0.661213 -0.016664
v 0.843201 -0.575260 -0.016664
v 0.843201 -0.661213 0.016670
v 0.790371 -0.389305 0.016670
v 0.790371 -0.541926 -0.016664
v 0.790371 -0.389305 -0.016664
v 0.790371 -0.541926 0.016670
v 0.843201 -0.270020 0.016670
v 0.843201 -0.355973 -0.016664
v 0.843201 -0.270020 -0.016664
v 0.843201 -0.355973 0.016670
v 0.843201 0.645195 0.016670
v 0.843201 0.559753 0.016670
v 0.843201 0.645195 -0.016664
v 0.843201 0.559753 -0.016664
v 0.790371 0.526417 0.016670
v 0.790371 0.373796 0.016670
v 0.790371 0.526417 -0.016664
v 0.790371 0.373796 -0.016664
v 0.843201 0.340460 0.016670
v 0.843201 0.254507 0.016670
v 0.843201 0.340460 -0.016664
v 0.843201 0.254507 -0.016664
v 0.790371 0.221176 0.016670
v 0.790371 0.068556 -0.016664
v 0.790371 0.221176 -0.016664
v 0.790371 0.068556 0.016670
v 0.843201 0.035220 0.016670
v 0.843201 -0.050733 -0.016664
v 0.843201 0.035220 -0.016664
v 0.843201 -0.050733 0.016670
v 0.843201 -0.953333 0.016670
v 0.790371 -0.986667 0.016670
v 0.843201 -0.953333 -0.016664
v 0.790371 -0.986667 -0.016664
v 0.843201 -0.880500 -0.016664
v 0.790371 -0.986667 -0.016664
v 0.790371 -0.847166 -0.016664
v 0.843201 -0.953333 -0.016664
v 0.843201 -0.880500 -0.016664
v 0.790371 -0.847166 -0.016664
v 0.843201 -0.880500 0.016670
v 0.790371 -0.847166 0.016670
v 0.843201 -0.880500 0.016670
v 0.790371 -0.986667 0.016670
v 0.843201 -0.953333 0.016670
v 0.790371 -0.847166 0.016670
v 0.843201 -0.575260 -0.016664
v 0.790371 -0.694546 -0.016664
v 0.790371 -0.541926 -0.016664
v 0.843201 -0.661213 -0.016664
v 0.843201 -0.575260 -0.016664
v 0.790371 -0.541926 -0.016664
v 0.843201 -0.575260 0.016670
v 0.790371 -0.541926 0.016670
v 0.843201 -0.575260 0.016670
v 0.790371 -0.694546 0.016670
v 0.843201 -0.661213 0.016670
v 0.790371 -0.541926 0.016670
v 0.843201 -0.661213 0.016670
v 0.790371 -0.694546 0.016670
v 0.843201 -0.661213 -0.016664
v 0.790371 -0.694546 -0.016664
v 0.843201 -0.270020 -0.016664
v 0.790371 -0.389305 -0.016664
v 0.790371 -0.236685 -0.016664
v 0.843201 -0.355973 -0.016664
v 0.843201 -0.270020 -0.016664
v 0.790371 -0.236685 -0.016664
v 0.843201 -0.270020 0.016670
v 0.790371 -0.236685 0.016670
v 0.843201 -0.270020 0.016670
v 0.790371 -0.389305 0.016670
v 0.843201 -0.355973 0.016670
v 0.790371 -0.236685 0.016670
v 0.843201 -0.355973 0.016670
v 0.790371 -0.389305 0.016670
v 0.843201 -0.355973 -0.016664
v 0.790371 -0.389305 -0.016664
v 0.843201 0.645195 -0.016664
v 0.790371 0.678528 -0.016664
v 0.843201 0.645195 0.016670
v 0.790371 0.678528 0.016670
v 0.843201 0.559753 0.016670
v 0.843201 0.645195 0.016670
v 0.790371 0.678528 0.016670
v 0.790371 0.526417 0.016670
v 0.843201 0.559753 0.016670
v 0.790371 0.526417 0.016670
v 0.843201 0.559753 -0.016664
v 0.790371 0.526417 -0.016664
v 0.790371 0.678528 -0.016664
v 0.843201 0.559753 -0.016664
v 0.790371 0.526417 -0.016664
v 0.843201 0.645195 -0.016664
v 0.843201 0.340460 -0.016664
v 0.790371 0.221176 -0.016664
v 0.790371 0.373796 -0.016664
v 0.843201 0.254507 -0.016664
v 0.843201 0.340460 -0.016664
v 0.790371 0.373796 -0.016664
v 0.843201 0.340460 0.016670
v 0.790371 0.373796 0.016670
v 0.843201 0.340460 0.016670
v 0.790371 0.221176 0.016670
v 0.843201 0.254507 0.016670
v 0.790371 0.373796 0.016670
v 0.843201 0.254507 0.016670
v 0.790371 0.221176 0.016670
v 0.843201 0.254507 -0.016664
v 0.790371 0.221176 -0.016664
v 0.843201 0.035220 -0.016664
v 0.790371 -0.084065 -0.016664
v 0.790371 0.068556 -0.016664
v 0.843201 -0.050733 -0.016664
v 0.843201 0.035220 -0.016664
v 0.790371 0.068556 -0.016664
v 0.843201 0.035220 0.016670
v 0.790371 0.068556 0.016670
v 0.843201 0.035220 0.016670
v 0.790371 -0.084065 0.016670
v 0.843201 -0.050733 0.016670
v 0.790371 0.068556 0.016670
v 0.843201 -0.050733 0.016670
v 0.790371 -0.084065 0.016670
v 0.843201 -0.050733 -0.016664
v 0.790371 -0.084065 -0.016664
v 0.790371 0.678528 0.016670
v 0.790371 0.678528 -0.016664
v 0.777986 0.678528 -0.016664
v 0.777986 0.678528 0.016670
v 0.777986 0.678528 0.016670
v 0.777986 0.459025 0.016670
v 0.777986 0.144866 0.016670
v 0.777986 -0.160375 0.016670
v 0.777986 -0.389305 0.016670
v 0.777986 -0.541926 0.016670
v 0.777986 -0.694546 0.016670
v 0.777986 -0.847166 0.016670
v 0.777986 -0.986667 0.016670
v 0.790371 -0.986667 -0.016664
v 0.790371 -0.986667 0.016670
v 0.777986 -0.986667 0.016670
v 0.777986 -0.986667 -0.016664
v 0.777986 -0.986667 -0.016664
v 0.777986 -0.847166 -0.016664
v 0.777986 -0.694546 -0.016664
v 0.777986 -0.541926 -0.016664
v 0.777986 -0.389305 -0.016664
v 0.777986 -0.160375 -0.016664
v 0.777986 0.144866 -0.016664
v 0.777986 0.459025 -0.016664
v 0.777986 0.678528 -0.016664
v 0.437397 0.883048 0.030003
v -0.539340 0.983314 0.030003
v -0.482872 0.883048 0.030003
v 0.493866 0.983314 0.030003
v -0.623407 0.742319 0.030003
v 0.577933 0.742319 0.030003
v -0.475893 0.870655 0.045998
v 0.425220 0.857548 0.030003
v 0.430418 0.870655 0.045998
v -0.470694 0.857548 0.030003
v -0.595054 0.755078 0.045998
v -0.563319 0.768185 0.030003
v 0.549229 0.755078 0.045998
v 0.514896 0.768185 0.030003
v 0.437397 0.883048 0.030003
v -0.482872 0.883048 0.030003
v -0.623407 0.742319 0.030003
v 0.577933 0.742319 0.030003
v 0.517275 0.768185 -0.030004
v -0.560940 0.768185 -0.030005
v 0.424651 0.857548 -0.030005
v -0.471263 0.857548 -0.030005
v 0.429849 0.870655 -0.045999
v -0.471263 0.857548 -0.030005
v -0.476462 0.870655 -0.045999
v 0.424651 0.857548 -0.030005
v 0.549010 0.755078 -0.045999
v 0.517275 0.768185 -0.030004
v -0.560940 0.768185 -0.030005
v -0.595273 0.755078 -0.045999
v 0.436828 0.883048 -0.030005
v -0.483441 0.883048 -0.030005
v 0.577364 0.742319 -0.030004
v -0.623977 0.742319 -0.030005
v -0.539340 0.983314 -0.029997
v 0.436828 0.883048 -0.030005
v -0.483441 0.883048 -0.030005
v 0.493866 0.983314 -0.029997
v -0.823461 0.715879 -0.029997
v 0.577364 0.742319 -0.030004
v 0.777986 0.715879 -0.029997
v -0.623977 0.742319 -0.030005
v 0.577364 0.742319 -0.030004
v 0.436828 0.883048 -0.030005
v 0.493866 0.983314 -0.029997
v 0.777986 0.715879 -0.029997
v -0.823461 0.715879 -0.029997
v -0.539340 0.983314 -0.029997
v -0.623977 0.742319 -0.030005
v -0.483441 0.883048 -0.030005
v -0.254616 -0.327331 0.008309
v -0.063791 -0.327331 0.008309
v -0.228206 -0.353741 0.008309
v -0.090201 -0.353741 0.008309
vn 0.6854 0.7282 -0.0000
vn -0.6854 0.7282 -0.0000
vn -0.0000 -0.0000 1.0000
vn -0.0000 -0.0000 -1.0000
vn -0.2171 0.8497 0.4805
vn 0.6113 0.6113 0.5027
vn -0.6113 0.6113 0.5027
vn 0.2170 0.8497 0.4805
vn -0.6113 -0.6113 0.5027
vn -0.8497 0.2170 0.4805
vn -0.8497 -0.2170 0.4805
vn 0.6113 -0.6112 0.5027
vn -0.2171 -0.8497 0.4805
vn 0.2170 -0.8497 0.4805
vn 0.8497 -0.2171 0.4805
vn 0.8497 0.2170 0.4805
vn 0.6113 -0.6113 0.5027
vn 0.6113 0.6113 -0.5027
vn -0.2171 0.8497 -0.4805
vn -0.6113 0.6113 -0.5027
vn 0.2170 0.8497 -0.4805
vn 0.8497 -0.2171 -0.4805
vn 0.8497 0.2170 -0.4805
vn 0.6112 -0.6113 -0.5027
vn 0.2170 -0.8497 -0.4805
vn -0.6113 -0.6112 -0.5027
vn -0.2170 -0.8497 -0.4805
vn -0.8497 0.2170 -0.4805
vn -0.8497 -0.2170 -0.4805
vn -0.2171 -0.8497 -0.4805
vn -0.3827 -0.9239 -0.0000
vn -0.9239 -0.3827 -0.0000
vn 0.3827 -0.9239 -0.0000
vn 0.9239 -0.3827 -0.0000
vn 0.9239 0.3827 -0.0000
vn 0.3827 0.9239 -0.0000
vn -0.3827 0.9239 -0.0000
vn -0.9239 0.3827 -0.0000
vn -0.1605 -0.3874 -0.9078
vn -0.3874 -0.1605 -0.9078
vn -0.3874 0.1605 -0.9078
vn -0.1605 0.3875 -0.9078
vn 0.1605 0.3874 -0.9078
vn 0.1605 0.3875 -0.9078
vn 0.3874 0.1605 -0.9078
vn 0.3874 -0.1605 -0.9078
vn 0.1605 -0.3874 -0.9078
vn -0.3874 -0.1605 0.9078
vn -0.1605 -0.3874 0.9078
vn 0.1605 -0.3874 0.9078
vn 0.3874 -0.1605 0.9078
vn 0.3874 0.1605 0.9078
vn 0.1605 0.3874 0.9078
vn 0.1605 0.3875 0.9078
vn -0.1605 0.3875 0.9078
vn -0.3874 0.1605 0.9078
vn -1.0000 -0.0000 -0.0000
vn -0.0000 1.0000 -0.0000
vn -0.0000 -1.0000 -0.0000
vn -0.3131 -0.1553 0.9369
vn -0.3659 0.0968 0.9256
vn -0.3131 0.1553 0.9369
vn -0.3660 -0.0968 0.9256
vn -0.1553 -0.3131 0.9369
vn 0.1553 -0.3131 0.9369
vn 0.0968 -0.3660 0.9256
vn -0.0968 -0.3660 0.9256
vn 0.3131 -0.1553 0.9369
vn 0.3131 0.1553 0.9369
vn 0.3659 0.0968 0.9256
vn 0.3659 -0.0968 0.9256
vn -0.1553 0.3131 0.9369
vn 0.0968 0.3660 0.9256
vn 0.1553 0.3131 0.9369
vn -0.0968 0.3660 0.9256
vn 1.0000 -0.0000 -0.0000
vn -0.7071 0.7071 -0.0000
vn -0.7071 -0.7071 -0.0000
vn 0.7071 -0.7071 -0.0000
vn 0.7071 0.7071 -0.0000
vn -0.8175 -0.2301 0.5280
vn 0.0497 0.0950 0.9942
vn 0.0495 -0.0944 0.9943
vn -0.8175 0.2301 0.5280
vn 0.0950 -0.0495 0.9942
vn -0.0949 -0.0495 0.9942
vn -0.2301 0.8175 0.5280
vn 0.2301 0.8175 0.5280
vn 0.8175 0.2301 0.5279
vn 0.8175 -0.2301 0.5280
vn -0.0494 -0.0944 0.9943
vn -0.0495 0.0950 0.9942
vn 0.0961 0.0569 0.9937
vn -0.2301 -0.8175 0.5280
vn -0.0961 0.0569 0.9937
vn 0.2301 -0.8175 0.5280
vn 0.4655 -0.2395 0.8520
vn 0.2395 -0.4654 0.8521
vn -0.4655 -0.2395 0.8521
vn -0.2395 -0.4654 0.8521
vn -0.2421 0.4699 0.8489
vn -0.4664 0.2410 0.8511
vn 0.2421 0.4699 0.8489
vn 0.4665 0.2410 0.8511
vn 0.5336 -0.8457 -0.0000
vn 0.5336 0.8457 -0.0000
vn -0.0648 0.1831 0.9810
vn -0.2782 -0.6851 0.6733
vn 0.0675 0.1869 0.9801
vn 0.2840 -0.6969 0.6585
vn -0.2775 -0.0977 0.9557
vn 0.3914 0.1516 0.9076
vn 0.2773 -0.1041 0.9551
vn -0.3724 0.1724 0.9119
vn 0.3079 0.7019 0.6423
vn -0.3089 0.7034 0.6401
vn -0.3946 -0.1872 0.8996
vn 0.3941 -0.1845 0.9003
vn 0.0648 0.1830 -0.9810
vn 0.2782 -0.6851 -0.6733
vn -0.0675 0.1869 -0.9801
vn -0.2840 -0.6969 -0.6585
vn 0.2775 -0.0977 -0.9557
vn -0.3914 0.1516 -0.9076
vn 0.3724 0.1724 -0.9119
vn -0.2773 -0.1041 -0.9551
vn 0.3089 0.7034 -0.6401
vn -0.3079 0.7019 -0.6423
vn 0.3946 -0.1872 -0.8996
vn -0.3941 -0.1845 -0.9003
vn -0.0000 0.0001 -1.0000
vn -0.0000 -0.0003 -1.0000
vt 0.371751 0.031833
vt 0.328786 0.033485
vt 0.328786 0.042266
vt 0.371346 0.042241
vt 0.134611 0.033539
vt 0.177566 0.042266
vt 0.177566 0.033485
vt 0.134611 0.042321
vt 0.226206 0.902852
vt 0.347556 0.993495
vt 0.317399 0.902852
vt 0.053709 0.992940
vt 0.653474 0.680160
vt 0.360564 0.680160
vt 0.480978 0.758626
vt 0.389785 0.758626
vt 0.360564 0.994001
vt 0.653474 0.994001
vt 0.480978 0.903913
vt 0.389785 0.903913
vt 0.347556 0.839977
vt 0.317399 0.757565
vt 0.360564 0.840484
vt 0.187553 0.009107
vt 0.258018 0.004759
vt 0.186559 0.004816
vt 0.257025 0.009050
vt 0.072911 0.004829
vt 0.183016 0.009084
vt 0.076431 0.009084
vt 0.001593 0.004865
vt 0.071918 0.009120
vt 0.005108 0.009156
vt 0.368236 0.008969
vt 0.261651 0.008969
vt 0.371751 0.004678
vt 0.187100 0.011117
vt 0.257337 0.015354
vt 0.258329 0.011071
vt 0.188091 0.015401
vt 0.077152 0.015411
vt 0.183554 0.015411
vt 0.073621 0.011127
vt 0.072629 0.015411
vt 0.002408 0.011128
vt 0.005917 0.015412
vt 0.261840 0.015317
vt 0.371751 0.011034
vt 0.368242 0.015317
vt 0.370223 0.008969
vt 0.370225 0.015317
vt 0.443135 0.331618
vt 0.432371 0.334035
vt 0.443135 0.334035
vt 0.432371 0.331618
vt 0.443135 0.224161
vt 0.432371 0.224161
vt 0.443333 0.220370
vt 0.432588 0.220370
vt 0.432588 0.050656
vt 0.443333 0.050656
vt 0.432452 0.625998
vt 0.443263 0.623570
vt 0.432452 0.623570
vt 0.443263 0.625998
vt 0.432452 0.515650
vt 0.443263 0.515650
vt 0.443263 0.513223
vt 0.432452 0.513223
vt 0.309057 0.022192
vt 0.309057 0.017389
vt 0.305731 0.022613
vt 0.305731 0.017810
vt 0.137162 0.029713
vt 0.137162 0.024900
vt 0.134599 0.029746
vt 0.134599 0.024933
vt 0.371751 0.022192
vt 0.371751 0.017389
vt 0.199976 0.029713
vt 0.199976 0.024900
vt 0.027852 0.022536
vt 0.029790 0.017733
vt 0.027852 0.017733
vt 0.029790 0.022536
vt 0.202511 0.029868
vt 0.202511 0.025055
vt 0.133740 0.017733
vt 0.133740 0.022536
vt 0.306661 0.025055
vt 0.306661 0.029868
vt 0.136713 0.017653
vt 0.136713 0.022456
vt 0.308937 0.025018
vt 0.308937 0.029831
vt 0.199406 0.017653
vt 0.199406 0.022456
vt 0.371751 0.025018
vt 0.371751 0.029831
vt 0.201780 0.017810
vt 0.201780 0.022613
vt 0.028508 0.024933
vt 0.028508 0.029746
vt 0.030449 0.024933
vt 0.030449 0.029746
vt 0.291433 0.597312
vt 0.295596 0.595654
vt 0.293808 0.594917
vt 0.292177 0.599098
vt 0.295596 0.414089
vt 0.293808 0.414827
vt 0.292177 0.410646
vt 0.291432 0.412432
vt 0.182641 0.410646
vt 0.183385 0.412432
vt 0.179221 0.414090
vt 0.181010 0.414827
vt 0.181010 0.594917
vt 0.179221 0.595654
vt 0.183385 0.597312
vt 0.182641 0.599098
vt 0.181091 0.406032
vt 0.182723 0.410212
vt 0.183467 0.408427
vt 0.179303 0.406769
vt 0.292251 0.410212
vt 0.291507 0.408427
vt 0.293881 0.406032
vt 0.295670 0.406769
vt 0.293881 0.225955
vt 0.295670 0.225218
vt 0.292251 0.221774
vt 0.291507 0.223560
vt 0.182723 0.221774
vt 0.183467 0.223560
vt 0.179303 0.225218
vt 0.181091 0.225955
vt 0.666929 0.680129
vt 0.666930 0.993970
vt 0.954782 0.491413
vt 0.954782 0.996461
vt 0.996640 0.534800
vt 0.996641 0.954454
vt 0.157127 0.053992
vt 0.371751 0.046092
vt 0.157495 0.044544
vt 0.371751 0.054064
vt 0.152899 0.879591
vt 0.197510 0.879591
vt 0.197510 0.827806
vt 0.195801 0.873734
vt 0.195801 0.833663
vt 0.996517 0.458782
vt 0.855218 0.458782
vt 0.874774 0.478339
vt 0.976961 0.478339
vt 0.053709 0.679099
vt 0.152899 0.827806
vt 0.486577 0.481850
vt 0.611934 0.487262
vt 0.617347 0.481850
vt 0.491989 0.487262
vt 0.468702 0.499724
vt 0.468702 0.603948
vt 0.474114 0.598536
vt 0.474114 0.505136
vt 0.486577 0.621822
vt 0.617347 0.621822
vt 0.611934 0.616410
vt 0.491989 0.616410
vt 0.635220 0.499724
vt 0.629808 0.598536
vt 0.635220 0.603948
vt 0.629809 0.505136
vt 0.714726 0.763433
vt 0.718797 0.811444
vt 0.718797 0.763433
vt 0.714726 0.811444
vt 0.718797 0.978118
vt 0.718797 0.955501
vt 0.714726 0.955501
vt 0.714726 0.978118
vt 0.714726 0.900012
vt 0.714726 0.927918
vt 0.718797 0.927918
vt 0.718797 0.900012
vt 0.714726 0.839692
vt 0.714726 0.862627
vt 0.718797 0.862627
vt 0.718797 0.839692
vt 0.191653 0.877883
vt 0.158756 0.877883
vt 0.154607 0.873734
vt 0.154607 0.833663
vt 0.158756 0.829546
vt 0.191653 0.829546
vt 0.718797 0.995581
vt 0.714726 0.995581
vt 0.226206 0.757565
vt 0.347556 0.679654
vt 0.190926 0.546487
vt 0.187784 0.456371
vt 0.187735 0.549637
vt 0.190945 0.459525
vt 0.274386 0.445112
vt 0.198962 0.445132
vt 0.202118 0.448284
vt 0.271220 0.448262
vt 0.282296 0.459546
vt 0.282276 0.546512
vt 0.285433 0.549667
vt 0.285485 0.456396
vt 0.274238 0.560896
vt 0.201982 0.557782
vt 0.198814 0.560933
vt 0.271084 0.557746
vt 0.184675 0.452885
vt 0.195475 0.442029
vt 0.288624 0.452917
vt 0.277880 0.442008
vt 0.277724 0.563930
vt 0.288539 0.553153
vt 0.195315 0.563969
vt 0.184596 0.553114
vt 0.356092 0.991056
vt 0.349995 0.991056
vt 0.349995 0.686486
vt 0.356092 0.686486
vt 0.347556 0.726555
vt 0.347556 0.783266
vt 0.347556 0.953399
vt 0.347556 0.896688
vt 0.360564 0.953906
vt 0.360564 0.897195
vt 0.360564 0.727061
vt 0.360564 0.783773
vt 0.356092 0.726634
vt 0.356092 0.784095
vt 0.356092 0.839925
vt 0.356092 0.965541
vt 0.356092 0.937626
vt 0.356092 0.909712
vt 0.356092 0.881796
vt 0.349995 0.965541
vt 0.349995 0.937626
vt 0.349995 0.909712
vt 0.349995 0.881797
vt 0.349995 0.839925
vt 0.349995 0.726634
vt 0.349995 0.784095
vt 0.685921 0.758198
vt 0.685921 0.712101
vt 0.675853 0.758198
vt 0.675853 0.712101
vt 0.685921 0.517646
vt 0.675854 0.495648
vt 0.675854 0.517646
vt 0.685921 0.495648
vt 0.685921 0.573811
vt 0.675853 0.527714
vt 0.675853 0.573811
vt 0.685921 0.527714
vt 0.685921 0.609840
vt 0.675853 0.583879
vt 0.675853 0.609840
vt 0.685921 0.583879
vt 0.685921 0.666005
vt 0.675853 0.619907
vt 0.675853 0.666005
vt 0.685921 0.619907
vt 0.685921 0.702033
vt 0.675853 0.676072
vt 0.675853 0.702033
vt 0.685921 0.676072
vt 0.685921 0.978461
vt 0.685921 0.952654
vt 0.675853 0.978461
vt 0.675853 0.952654
vt 0.685921 0.942586
vt 0.685921 0.896489
vt 0.675853 0.942586
vt 0.675853 0.896489
vt 0.685921 0.886420
vt 0.685921 0.860459
vt 0.675853 0.886420
vt 0.675853 0.860459
vt 0.685921 0.850392
vt 0.675853 0.804295
vt 0.675853 0.850392
vt 0.685921 0.804295
vt 0.685921 0.794227
vt 0.675853 0.768265
vt 0.675853 0.794227
vt 0.685921 0.768265
vt 0.685921 0.485580
vt 0.675854 0.485580
vt 0.695070 0.921999
vt 0.710073 0.952148
vt 0.710073 0.912533
vt 0.695070 0.942682
vt 0.708847 0.966036
vt 0.693844 0.996185
vt 0.708847 0.986720
vt 0.693844 0.956570
vt 0.695070 0.835318
vt 0.710073 0.869193
vt 0.710073 0.825852
vt 0.695070 0.859727
vt 0.708847 0.879355
vt 0.693844 0.913229
vt 0.708847 0.903764
vt 0.693844 0.869889
vt 0.695070 0.748637
vt 0.710073 0.782511
vt 0.710073 0.739171
vt 0.695070 0.773046
vt 0.708847 0.792673
vt 0.693844 0.826548
vt 0.708847 0.817083
vt 0.693844 0.783207
vt 0.675853 0.988529
vt 0.685921 0.988529
vt 0.708847 0.557037
vt 0.708847 0.532773
vt 0.693844 0.523308
vt 0.693844 0.566504
vt 0.710073 0.479271
vt 0.695070 0.513000
vt 0.710073 0.522467
vt 0.695070 0.488737
vt 0.695070 0.575274
vt 0.710073 0.609148
vt 0.710073 0.565808
vt 0.695070 0.599683
vt 0.708847 0.619311
vt 0.693844 0.653185
vt 0.708847 0.643720
vt 0.693844 0.609844
vt 0.695070 0.661956
vt 0.710073 0.695830
vt 0.710073 0.652489
vt 0.695070 0.686365
vt 0.708847 0.705992
vt 0.693844 0.739866
vt 0.708847 0.730401
vt 0.693844 0.696526
vt 0.675988 0.992664
vt 0.686056 0.992664
vt 0.690327 0.523308
vt 0.690327 0.585641
vt 0.690327 0.674855
vt 0.690327 0.761537
vt 0.690327 0.826548
vt 0.690327 0.869889
vt 0.690327 0.913229
vt 0.690327 0.956570
vt 0.690327 0.996185
vt 0.686076 0.480957
vt 0.676008 0.480957
vt 0.713590 0.952148
vt 0.713590 0.912533
vt 0.713590 0.869193
vt 0.713590 0.825852
vt 0.713590 0.782511
vt 0.713590 0.717500
vt 0.713590 0.630819
vt 0.713590 0.541605
vt 0.713590 0.479271
vt 0.284325 0.648523
vt 0.105676 0.630184
vt 0.116004 0.648523
vt 0.294653 0.630184
vt 0.090300 0.674263
vt 0.310030 0.674263
vt 0.335863 0.273469
vt 0.331858 0.548773
vt 0.335863 0.550361
vt 0.331858 0.275058
vt 0.300552 0.237064
vt 0.304556 0.246760
vt 0.300552 0.586660
vt 0.304556 0.576171
vt 0.339649 0.552493
vt 0.339649 0.271337
vt 0.296654 0.228402
vt 0.296654 0.595429
vt 0.952828 0.996808
vt 0.952828 0.491758
vt 0.910970 0.953420
vt 0.910969 0.533764
vt 0.138064 0.546767
vt 0.142069 0.271461
vt 0.138064 0.269873
vt 0.142069 0.545179
vt 0.173375 0.583173
vt 0.169371 0.573477
vt 0.169371 0.244064
vt 0.173375 0.233575
vt 0.134278 0.548899
vt 0.134278 0.267741
vt 0.177273 0.591835
vt 0.177273 0.224805
vt 0.601508 0.631246
vt 0.422963 0.649585
vt 0.591284 0.649585
vt 0.412531 0.631246
vt 0.397258 0.675325
vt 0.616988 0.675325
vt 0.996517 0.327550
vt 0.855218 0.327550
vt 0.976961 0.307995
vt 0.874774 0.307995
s 0
usemtl 19___Default
f 1/1/1 2/2/1 3/3/1
f 1/1/1 3/3/1 4/4/1
f 5/5/2 6/6/2 7/7/2
f 6/6/2 5/5/2 8/8/2
f 9/9/3 10/10/3 11/11/3
f 12/12/3 10/10/3 9/9/3
f 13/13/4 14/14/4 15/15/4
f 14/14/4 16/16/4 15/15/4
f 17/17/4 18/18/4 19/19/4
f 17/17/4 19/19/4 20/20/4
f 21/21/3 22/22/3 11/11/3
f 23/23/4 20/20/4 16/16/4
s 1
f 24/24/5 25/25/6 26/26/7
f 25/25/6 24/24/5 27/27/8
f 26/26/7 28/28/9 29/29/10
f 29/29/10 28/28/9 30/30/11
f 31/31/12 32/32/13 28/28/9
f 32/32/13 31/31/12 33/33/14
f 34/34/15 25/25/6 35/35/16
f 36/36/17 25/25/6 34/34/15
f 37/37/18 38/38/19 39/39/20
f 38/38/19 37/37/18 40/40/21
f 37/37/18 41/41/22 42/42/23
f 41/41/22 37/37/18 43/43/24
f 44/44/25 45/45/26 46/46/27
f 43/43/24 45/45/26 44/44/25
f 47/47/28 48/48/26 39/39/20
f 48/48/26 47/47/28 49/49/29
f 25/25/6 27/27/8 35/35/16
f 28/28/9 32/32/13 30/30/11
f 36/36/17 34/34/15 50/50/14
f 37/37/18 42/42/23 40/40/21
f 43/43/24 44/44/25 41/41/22
f 48/48/26 49/49/29 51/51/30
f 26/26/7 29/29/10 24/24/5
f 39/39/20 38/38/19 47/47/28
f 52/52/31 53/53/32 54/54/32
f 53/53/32 52/52/31 55/55/31
f 56/56/33 55/55/31 52/52/31
f 55/55/31 56/56/33 57/57/33
f 57/57/33 58/58/34 59/59/34
f 58/58/34 57/57/33 56/56/33
f 58/58/34 60/60/35 59/59/34
f 60/60/35 58/58/34 61/61/35
f 62/62/35 63/63/36 64/64/36
f 63/63/36 62/62/35 65/65/35
f 66/66/37 64/64/36 63/63/36
f 66/66/37 63/63/36 67/67/37
f 66/66/37 68/68/38 69/69/38
f 68/68/38 66/66/37 67/67/37
f 68/68/38 54/54/32 53/53/32
f 53/53/32 69/69/38 68/68/38
f 70/70/31 71/71/31 72/72/32
f 72/72/32 71/71/31 73/73/32
f 74/74/31 75/75/31 76/76/32
f 76/76/32 75/75/31 77/77/32
f 70/70/31 78/78/33 79/79/33
f 70/70/31 79/79/33 71/71/31
f 74/74/31 80/80/33 81/81/33
f 74/74/31 81/81/33 75/75/31
f 82/82/33 83/83/34 84/84/33
f 83/83/34 82/82/33 85/85/34
f 86/86/34 87/87/34 80/80/33
f 81/81/33 80/80/33 87/87/34
f 85/85/34 88/88/35 83/83/34
f 88/88/35 85/85/34 89/89/35
f 90/90/35 87/87/34 86/86/34
f 86/86/34 91/91/35 90/90/35
f 88/88/35 89/89/35 92/92/36
f 92/92/36 89/89/35 93/93/36
f 90/90/35 91/91/35 94/94/36
f 94/94/36 91/91/35 95/95/36
f 96/96/37 92/92/36 93/93/36
f 96/96/37 93/93/36 97/97/37
f 98/98/37 94/94/36 95/95/36
f 98/98/37 95/95/36 99/99/37
f 96/96/37 97/97/37 100/100/38
f 100/100/38 97/97/37 101/101/38
f 102/102/37 103/103/37 104/104/38
f 104/104/38 103/103/37 105/105/38
f 101/101/38 72/72/32 73/73/32
f 73/73/32 100/100/38 101/101/38
f 77/77/32 105/105/38 76/76/32
f 105/105/38 77/77/32 104/104/38
f 106/106/39 107/107/40 108/108/40
f 107/107/40 106/106/39 109/109/39
f 108/108/40 110/110/41 111/111/41
f 110/110/41 108/108/40 107/107/40
f 112/112/42 111/111/41 110/110/41
f 111/111/41 112/112/42 113/113/42
f 112/112/42 114/114/43 115/115/44
f 112/112/42 115/115/44 113/113/42
f 116/116/45 115/115/44 114/114/43
f 115/115/44 116/116/45 117/117/45
f 118/118/46 116/116/45 119/119/46
f 116/116/45 118/118/46 117/117/45
f 120/120/47 118/118/46 119/119/46
f 119/119/46 121/121/47 120/120/47
f 109/109/39 120/120/47 121/121/47
f 120/120/47 109/109/39 106/106/39
f 122/122/48 123/123/49 124/124/49
f 123/123/49 122/122/48 125/125/48
f 123/123/49 126/126/50 127/127/50
f 123/123/49 127/127/50 124/124/49
f 126/126/50 128/128/51 127/127/50
f 128/128/51 126/126/50 129/129/51
f 129/129/51 130/130/52 128/128/51
f 130/130/52 129/129/51 131/131/52
f 132/132/53 130/130/52 131/131/52
f 130/130/52 132/132/53 133/133/54
f 132/132/53 134/134/55 135/135/55
f 132/132/53 135/135/55 133/133/54
f 136/136/56 135/135/55 134/134/55
f 135/135/55 136/136/56 137/137/56
f 122/122/48 136/136/56 125/125/48
f 136/136/56 122/122/48 137/137/56
s 0
f 138/13/57 139/18/57 140/138/57
f 140/138/57 139/18/57 141/139/57
f 142/6/58 143/3/58 144/7/58
f 145/2/58 144/7/58 143/3/58
f 146/140/3 147/141/3 148/142/3
f 148/142/3 147/141/3 149/143/3
f 150/144/59 151/145/59 152/146/59
f 151/145/59 150/144/59 153/147/59
f 9/9/3 154/148/3 12/12/3
f 154/148/3 9/9/3 155/149/3
f 156/150/3 157/151/3 155/149/3
f 157/151/3 156/150/3 158/152/3
f 159/153/3 160/154/3 161/155/3
f 159/153/3 161/155/3 162/156/3
f 163/157/3 12/12/3 164/158/3
f 164/158/3 12/12/3 154/148/3
s 1
f 165/159/60 166/160/61 167/161/62
f 166/160/61 165/159/60 168/162/63
f 169/163/64 170/164/65 171/165/66
f 169/163/64 171/165/66 172/166/67
f 173/167/68 174/168/69 175/169/70
f 173/167/68 175/169/70 176/170/71
f 177/171/72 178/172/73 179/173/74
f 178/172/73 177/171/72 180/174/75
s 0
f 181/175/57 182/176/57 183/177/57
f 182/176/57 181/175/57 184/178/57
f 185/179/59 186/180/59 187/181/59
f 185/179/59 187/181/59 188/182/59
f 189/183/76 190/184/76 191/185/76
f 191/185/76 192/186/76 189/183/76
f 193/187/58 194/188/58 195/189/58
f 193/187/58 195/189/58 196/190/58
f 157/151/3 197/191/3 155/149/3
f 154/148/3 198/192/3 199/193/3
f 164/158/3 200/194/3 201/195/3
f 202/196/3 158/152/3 156/150/3
s 1
f 177/171/72 167/161/62 166/160/61
f 177/171/72 166/160/61 180/174/75
f 168/162/63 169/163/64 172/166/67
f 169/163/64 168/162/63 165/159/60
f 170/164/65 176/170/71 171/165/66
f 176/170/71 170/164/65 173/167/68
f 179/173/74 175/169/70 174/168/69
f 175/169/70 179/173/74 178/172/73
s 0
f 203/178/77 204/187/77 205/190/77
f 203/178/77 205/190/77 206/176/77
f 207/182/78 208/197/78 209/179/78
f 208/197/78 207/182/78 210/198/78
f 211/180/79 212/185/79 213/184/79
f 211/180/79 213/184/79 214/181/79
f 215/188/80 216/183/80 217/186/80
f 215/188/80 217/186/80 218/189/80
f 164/158/3 202/196/3 156/150/3
f 202/196/3 164/158/3 201/195/3
f 154/148/3 200/194/3 164/158/3
f 200/194/3 154/148/3 199/193/3
f 155/149/3 198/192/3 154/148/3
f 198/192/3 155/149/3 197/191/3
f 9/9/3 219/199/3 156/150/3
f 9/9/3 156/150/3 155/149/3
f 219/199/3 163/157/3 164/158/3
f 219/199/3 164/158/3 156/150/3
f 13/13/4 19/19/4 18/18/4
f 19/19/4 13/13/4 15/15/4
f 220/200/3 163/157/3 219/199/3
f 220/200/3 219/199/3 22/22/3
s 1
f 221/201/81 222/202/82 223/203/83
f 222/202/82 221/201/81 224/204/84
f 225/205/85 226/206/86 227/207/87
f 225/205/85 227/207/87 228/208/88
f 229/209/89 230/210/90 231/211/91
f 231/211/91 232/212/92 229/209/89
f 233/213/93 234/214/94 235/215/95
f 234/214/94 233/213/93 236/216/96
f 237/217/97 226/206/86 238/218/98
f 226/206/86 237/217/97 222/202/82
f 239/219/99 240/220/100 225/205/85
f 225/205/85 232/212/92 239/219/99
f 231/211/91 233/213/93 241/221/101
f 231/211/91 241/221/101 242/222/102
f 223/203/83 243/223/103 235/215/95
f 243/223/103 223/203/83 244/224/104
f 244/224/104 222/202/82 237/217/97
f 222/202/82 244/224/104 223/203/83
f 240/220/100 238/218/98 226/206/86
f 240/220/100 226/206/86 225/205/85
f 242/222/102 239/219/99 232/212/92
f 242/222/102 232/212/92 231/211/91
f 243/223/103 241/221/101 233/213/93
f 243/223/103 233/213/93 235/215/95
f 224/204/84 226/206/86 222/202/82
f 226/206/86 224/204/84 227/207/87
f 225/205/85 229/209/89 232/212/92
f 229/209/89 225/205/85 228/208/88
f 231/211/91 236/216/96 233/213/93
f 236/216/96 231/211/91 230/210/90
f 223/203/83 234/214/94 221/201/81
f 234/214/94 223/203/83 235/215/95
s 0
f 245/10/76 246/17/76 247/225/76
f 245/10/76 247/225/76 248/226/76
f 249/200/76 250/227/76 251/14/76
f 251/14/76 250/227/76 252/228/76
f 253/229/3 220/200/3 22/22/3
f 254/230/3 253/229/3 22/22/3
f 21/21/3 254/230/3 22/22/3
f 11/11/3 10/10/3 255/231/3
f 11/11/3 255/231/3 256/232/3
f 11/11/3 256/232/3 21/21/3
f 257/233/4 17/17/4 20/20/4
f 258/234/4 257/233/4 20/20/4
f 23/23/4 258/234/4 20/20/4
f 16/16/4 14/14/4 259/235/4
f 16/16/4 259/235/4 260/236/4
f 16/16/4 260/236/4 23/23/4
f 261/235/76 251/14/76 252/228/76
f 261/235/76 252/228/76 262/237/76
f 262/237/76 263/236/76 261/235/76
f 262/237/76 264/238/76 263/236/76
f 264/238/76 265/23/76 263/236/76
f 265/23/76 264/238/76 266/239/76
f 246/17/76 267/240/76 247/225/76
f 246/17/76 268/233/76 267/240/76
f 269/241/76 267/240/76 268/233/76
f 270/234/76 269/241/76 268/233/76
f 269/241/76 270/234/76 271/242/76
f 272/243/76 271/242/76 270/234/76
f 266/239/76 272/243/76 265/23/76
f 270/234/76 265/23/76 272/243/76
f 273/231/76 245/10/76 274/244/76
f 274/244/76 245/10/76 248/226/76
f 273/231/76 274/244/76 275/245/76
f 275/245/76 276/232/76 273/231/76
f 276/232/76 275/245/76 277/246/76
f 276/232/76 277/246/76 278/247/76
f 278/247/76 279/248/76 280/21/76
f 280/21/76 276/232/76 278/247/76
f 249/200/76 281/229/76 250/227/76
f 250/227/76 281/229/76 282/249/76
f 281/229/76 283/230/76 282/249/76
f 284/250/76 282/249/76 283/230/76
f 283/230/76 280/21/76 284/250/76
f 284/250/76 280/21/76 279/248/76
f 285/251/76 286/252/76 287/253/76
f 287/253/76 286/252/76 288/254/76
f 289/255/76 290/256/76 291/257/76
f 290/256/76 289/255/76 292/258/76
f 293/259/76 294/260/76 295/261/76
f 294/260/76 293/259/76 296/262/76
f 297/263/76 298/264/76 299/265/76
f 298/264/76 297/263/76 300/266/76
f 301/267/76 302/268/76 303/269/76
f 302/268/76 301/267/76 304/270/76
f 305/271/76 306/272/76 307/273/76
f 306/272/76 305/271/76 308/274/76
f 309/275/76 310/276/76 311/277/76
f 311/277/76 310/276/76 312/278/76
f 313/279/76 314/280/76 315/281/76
f 315/281/76 314/280/76 316/282/76
f 317/283/76 318/284/76 319/285/76
f 319/285/76 318/284/76 320/286/76
f 321/287/76 322/288/76 323/289/76
f 322/288/76 321/287/76 324/290/76
f 325/291/76 326/292/76 327/293/76
f 326/292/76 325/291/76 328/294/76
f 329/258/105 330/295/105 331/256/105
f 330/295/105 332/296/105 331/256/105
f 333/297/4 334/298/4 335/299/4
f 334/298/4 333/297/4 336/300/4
f 337/257/106 338/260/106 339/255/106
f 338/260/106 340/262/106 339/255/106
f 341/301/3 342/302/3 343/303/3
f 342/302/3 341/301/3 344/304/3
f 345/305/4 346/306/4 347/307/4
f 346/306/4 345/305/4 348/308/4
f 349/265/106 350/268/106 351/263/106
f 350/268/106 352/270/106 351/263/106
f 353/309/3 354/310/3 355/311/3
f 354/310/3 353/309/3 356/312/3
f 357/266/105 358/259/105 359/264/105
f 358/259/105 360/261/105 359/264/105
f 361/313/4 362/314/4 363/315/4
f 362/314/4 361/313/4 364/316/4
f 365/273/106 366/254/106 367/271/106
f 366/254/106 368/252/106 367/271/106
f 369/317/3 370/318/3 371/319/3
f 370/318/3 369/317/3 372/320/3
f 373/274/105 374/267/105 375/272/105
f 374/267/105 376/269/105 375/272/105
f 377/277/106 378/321/106 379/275/106
f 378/321/106 380/322/106 379/275/106
f 381/323/3 382/324/3 383/325/3
f 383/325/3 384/326/3 381/323/3
f 385/276/105 386/279/105 387/278/105
f 386/279/105 388/281/105 387/278/105
f 389/327/4 390/328/4 391/329/4
f 390/328/4 389/327/4 392/330/4
f 393/331/4 394/332/4 395/333/4
f 394/332/4 393/331/4 396/334/4
f 397/285/106 398/282/106 399/283/106
f 398/282/106 400/280/106 399/283/106
f 401/335/3 402/336/3 403/337/3
f 402/336/3 401/335/3 404/338/3
f 405/284/105 406/287/105 407/286/105
f 406/287/105 408/289/105 407/286/105
f 409/339/4 410/340/4 411/341/4
f 410/340/4 409/339/4 412/342/4
f 413/293/106 414/288/106 415/291/106
f 414/288/106 416/290/106 415/291/106
f 417/343/3 418/344/3 419/345/3
f 418/344/3 417/343/3 420/346/3
f 421/294/105 422/251/105 423/292/105
f 422/251/105 424/253/105 423/292/105
f 425/322/58 426/321/58 427/347/58
f 427/347/58 428/348/58 425/322/58
f 384/326/3 383/325/3 429/349/3
f 429/349/3 430/350/3 384/326/3
f 430/350/3 404/338/3 384/326/3
f 431/351/3 404/338/3 430/350/3
f 404/338/3 431/351/3 402/336/3
f 431/351/3 420/346/3 402/336/3
f 432/352/3 420/346/3 431/351/3
f 420/346/3 432/352/3 418/344/3
f 432/352/3 372/320/3 418/344/3
f 432/352/3 433/353/3 372/320/3
f 372/320/3 433/353/3 370/318/3
f 356/312/3 370/318/3 433/353/3
f 433/353/3 434/354/3 356/312/3
f 354/310/3 356/312/3 434/354/3
f 434/354/3 435/355/3 354/310/3
f 344/304/3 354/310/3 435/355/3
f 435/355/3 436/356/3 344/304/3
f 342/302/3 344/304/3 436/356/3
f 436/356/3 437/357/3 342/302/3
f 438/296/59 439/295/59 440/358/59
f 440/358/59 441/359/59 438/296/59
f 335/299/4 442/360/4 443/361/4
f 442/360/4 335/299/4 334/298/4
f 346/306/4 443/361/4 444/362/4
f 443/361/4 346/306/4 335/299/4
f 347/307/4 444/362/4 445/363/4
f 444/362/4 347/307/4 346/306/4
f 362/314/4 445/363/4 446/364/4
f 445/363/4 362/314/4 347/307/4
f 446/364/4 447/365/4 363/315/4
f 446/364/4 363/315/4 362/314/4
f 447/365/4 410/340/4 363/315/4
f 448/366/4 410/340/4 447/365/4
f 410/340/4 448/366/4 411/341/4
f 448/366/4 394/332/4 411/341/4
f 395/333/4 448/366/4 449/367/4
f 448/366/4 395/333/4 394/332/4
f 449/367/4 391/329/4 395/333/4
f 391/329/4 450/368/4 389/327/4
f 449/367/4 450/368/4 391/329/4
f 451/369/3 452/370/3 453/371/3
f 454/372/3 452/370/3 451/369/3
f 452/370/3 163/157/3 455/373/3
f 452/370/3 455/373/3 453/371/3
f 456/374/3 163/157/3 220/200/3
f 163/157/3 456/374/3 455/373/3
f 454/372/3 456/374/3 220/200/3
f 456/374/3 454/372/3 451/369/3
s 1
f 457/375/107 458/376/108 459/377/109
f 458/376/108 457/375/107 460/378/110
f 457/375/107 461/379/111 462/380/112
f 457/375/107 462/380/112 460/378/110
f 461/379/111 463/381/113 464/382/114
f 461/379/111 464/382/114 462/380/112
f 459/377/109 464/382/114 463/381/113
f 464/382/114 459/377/109 458/376/108
f 465/383/115 466/384/116 457/375/107
f 465/383/115 457/375/107 459/377/109
f 466/384/116 467/385/117 461/379/111
f 461/379/111 457/375/107 466/384/116
f 467/385/117 468/386/118 463/381/113
f 467/385/117 463/381/113 461/379/111
f 468/386/118 465/383/115 463/381/113
f 463/381/113 465/383/115 459/377/109
s 0
f 469/387/4 470/388/4 471/389/4
f 471/389/4 470/388/4 472/390/4
s 1
f 473/391/119 474/392/120 475/393/121
f 474/392/120 473/391/119 476/394/122
f 473/391/119 477/395/123 478/396/124
f 473/391/119 478/396/124 476/394/122
f 479/397/125 477/395/123 480/398/126
f 477/395/123 479/397/125 478/396/124
f 475/393/121 479/397/125 480/398/126
f 479/397/125 475/393/121 474/392/120
f 475/393/121 481/399/127 473/391/119
f 481/399/127 475/393/121 482/400/128
f 481/399/127 483/401/129 477/395/123
f 477/395/123 473/391/119 481/399/127
f 483/401/129 484/402/130 480/398/126
f 483/401/129 480/398/126 477/395/123
f 484/402/130 482/400/128 480/398/126
f 480/398/126 482/400/128 475/393/121
s 0
f 485/403/131 486/404/131 487/405/131
f 486/404/131 485/403/131 488/406/131
f 489/13/132 490/407/132 491/14/132
f 490/407/132 489/13/132 492/408/132
f 493/407/4 494/404/4 495/406/4
f 493/407/4 495/406/4 496/14/4
f 497/13/4 498/403/4 499/408/4
f 499/408/4 498/403/4 500/405/4
f 160/154/3 159/153/3 501/409/3
f 160/154/3 501/409/3 502/410/3
f 503/411/3 502/410/3 501/409/3
f 502/410/3 503/411/3 504/412/3
