# Blender 5.1.1
# www.blender.org
mtllib inner_door.mtl
o defaultMaterial
v -0.056681 1.219164 -0.100019
v -0.056681 1.219164 0.231407
v 0.057919 1.219164 0.231407
v 0.057919 1.219164 -0.100019
v -0.035139 0.086171 -0.335923
v -0.035139 1.900139 -0.335923
v -0.035139 1.983017 -0.418802
v -0.035139 0.003293 -0.418802
v -0.035139 0.003293 -0.418802
v -0.035139 0.003293 0.550190
v -0.035139 0.086171 0.467311
v -0.035139 0.086171 -0.335923
v -0.035139 0.140329 -0.281765
v -0.035139 1.845980 -0.281765
v -0.073909 1.845980 -0.281765
v -0.073909 0.140329 -0.281765
v -0.035139 1.900139 -0.335923
v -0.035139 0.086171 -0.335923
v -0.076015 0.086171 -0.335923
v -0.076015 1.900139 -0.335923
v -0.082356 1.854427 0.421600
v -0.082356 1.893797 0.460970
v -0.082356 1.893797 -0.329582
v -0.082356 1.854427 -0.290212
v -0.082356 0.131883 -0.290212
v -0.082356 1.854427 -0.290212
v -0.082356 1.893797 -0.329582
v -0.082356 0.092513 -0.329582
v -0.082356 0.092513 -0.329582
v -0.082356 0.092513 0.460970
v -0.082356 0.131883 0.421600
v -0.082356 0.131883 -0.290212
v -0.035139 1.183550 -0.137396
v -0.035139 1.578384 -0.137396
v -0.035139 1.845980 -0.281765
v -0.035139 0.140329 -0.281765
v -0.060637 1.215221 -0.103987
v -0.060637 1.545185 -0.103987
v -0.060637 1.570876 -0.129841
v -0.060637 1.189529 -0.129840
v -0.056681 1.219164 -0.100019
v 0.057919 1.219164 -0.100019
v 0.057919 1.541242 -0.100019
v -0.056681 1.541242 -0.100019
v -0.035139 1.578384 -0.137396
v -0.035139 1.183550 -0.137396
v -0.053105 1.183550 -0.137396
v -0.053105 1.578384 -0.137396
v -0.060637 1.545185 0.235375
v -0.060637 1.570876 0.261228
v -0.060637 1.570876 -0.129841
v -0.060637 1.545185 -0.103987
v -0.035139 0.003293 -0.418802
v -0.025001 0.003293 -0.428939
v -0.025001 -0.006845 -0.418802
v -0.025001 1.993155 -0.418802
v -0.025001 1.983017 -0.428940
v -0.035139 1.983017 -0.418802
v -0.056681 1.541242 0.231407
v -0.056681 1.541242 -0.100019
v 0.057919 1.541242 -0.100019
v 0.057919 1.541242 0.231407
v 0.026239 1.993155 -0.418802
v 0.026239 1.983017 -0.428940
v -0.025001 1.983017 -0.428940
v -0.025001 1.993155 -0.418802
v 0.026239 0.003293 -0.428939
v -0.025001 0.003293 -0.428939
v -0.035139 1.983017 0.550190
v -0.025001 1.993155 0.550190
v -0.076015 1.900139 -0.335923
v -0.076015 0.086171 -0.335923
v -0.082356 0.092513 -0.329582
v -0.082356 1.893797 -0.329582
v -0.082356 1.893797 -0.329582
v -0.082356 1.893797 0.460970
v -0.076015 1.900139 0.467311
v -0.076015 1.900139 -0.335923
v -0.082356 1.854427 -0.290212
v -0.082356 0.131883 -0.290212
v -0.073909 0.140329 -0.281765
v -0.073909 1.845980 -0.281765
v -0.082356 0.131883 0.421600
v -0.073909 0.140330 0.413153
v -0.073909 0.140329 -0.281765
v -0.082356 0.131883 -0.290212
v -0.073909 1.845980 -0.281765
v -0.073909 1.845981 0.413153
v -0.082356 1.854427 0.421600
v -0.082356 1.854427 -0.290212
v -0.053105 1.578384 -0.137396
v -0.053105 1.183550 -0.137396
v -0.060637 1.189529 -0.129840
v -0.060637 1.570876 -0.129841
v -0.060637 1.570876 -0.129841
v -0.060637 1.570876 0.261228
v -0.053105 1.578384 0.268783
v -0.053105 1.578384 -0.137396
v -0.060637 1.545185 -0.103987
v -0.060637 1.215221 -0.103987
v -0.056681 1.219164 -0.100019
v -0.056681 1.541242 -0.100019
v -0.060637 1.215221 0.235375
v -0.056681 1.219164 0.231407
v -0.056681 1.219164 -0.100019
v -0.060637 1.189529 0.261228
v -0.060637 1.215221 0.235375
v 0.036377 0.086171 -0.335923
v 0.036377 0.003293 -0.418802
v 0.036377 1.983017 -0.418802
v 0.036377 1.900139 -0.335923
v 0.036377 0.086171 -0.335923
v 0.036377 0.086171 0.467311
v 0.036377 0.003293 0.550190
v 0.036377 0.003293 -0.418802
v 0.036377 0.140329 -0.281765
v 0.075147 0.140329 -0.281765
v 0.075147 1.845980 -0.281765
v 0.036377 1.845980 -0.281765
v 0.036377 1.900139 -0.335923
v 0.077252 1.900139 -0.335923
v 0.077252 0.086171 -0.335923
v 0.036377 0.086171 -0.335923
v 0.083594 1.854427 0.421600
v 0.083594 1.854427 -0.290212
v 0.083594 1.893797 -0.329582
v 0.083594 1.893797 0.460970
v 0.083594 0.131883 -0.290212
v 0.083594 0.092513 -0.329582
v 0.083594 1.893797 -0.329582
v 0.083594 1.854427 -0.290212
v 0.083594 0.131883 -0.290212
v 0.083594 0.131883 0.421600
v 0.083594 0.092513 0.460970
v 0.083594 0.092513 -0.329582
v 0.036377 1.183550 -0.137396
v 0.036377 0.140329 -0.281765
v 0.036377 1.845980 -0.281765
v 0.036377 1.578384 -0.137396
v 0.061874 1.215221 -0.103987
v 0.061874 1.189529 -0.129840
v 0.061874 1.570876 -0.129841
v 0.061874 1.545185 -0.103987
v 0.036377 1.578384 -0.137396
v 0.054343 1.578384 -0.137396
v 0.054343 1.183550 -0.137396
v 0.036377 1.183550 -0.137396
v 0.061874 1.545185 0.235375
v 0.061874 1.545185 -0.103987
v 0.061874 1.570876 -0.129841
v 0.061874 1.570876 0.261228
v 0.036377 0.003293 -0.418802
v 0.026239 -0.006845 -0.418802
v 0.026239 0.003293 -0.428939
v 0.026239 1.993155 -0.418802
v 0.036377 1.983017 -0.418802
v 0.026239 1.983017 -0.428940
v 0.036377 1.578384 -0.137396
v 0.036377 1.578384 0.268783
v 0.054343 1.578384 0.268783
v 0.054343 1.578384 -0.137396
v 0.026239 1.993155 0.550190
v 0.036377 1.983017 0.550190
v 0.077252 1.900139 -0.335923
v 0.083594 1.893797 -0.329582
v 0.083594 0.092513 -0.329582
v 0.077252 0.086171 -0.335923
v 0.077252 1.900139 -0.335923
v 0.077252 1.900139 0.467311
v 0.083594 1.893797 0.460970
v 0.083594 1.893797 -0.329582
v 0.083594 1.854427 -0.290212
v 0.075147 1.845980 -0.281765
v 0.075147 0.140329 -0.281765
v 0.083594 0.131883 -0.290212
v 0.083594 0.131883 0.421600
v 0.083594 0.131883 -0.290212
v 0.075147 0.140329 -0.281765
v 0.075147 0.140330 0.413153
v 0.083594 1.854427 -0.290212
v 0.083594 1.854427 0.421600
v 0.075147 1.845981 0.413153
v 0.075147 1.845980 -0.281765
v 0.054343 1.578384 -0.137396
v 0.061874 1.570876 -0.129841
v 0.061874 1.189529 -0.129840
v 0.054343 1.183550 -0.137396
v 0.054343 1.578384 -0.137396
v 0.054343 1.578384 0.268783
v 0.061874 1.570876 0.261228
v 0.061874 1.570876 -0.129841
v 0.061874 1.545185 -0.103987
v 0.057919 1.541242 -0.100019
v 0.057919 1.219164 -0.100019
v 0.061874 1.215221 -0.103987
v 0.061874 1.215221 0.235375
v 0.061874 1.215221 -0.103987
v 0.057919 1.219164 -0.100019
v 0.057919 1.219164 0.231407
v -0.025001 0.003293 -0.428939
v 0.026239 0.003293 -0.428939
v 0.026239 -0.006845 -0.418802
v -0.025001 -0.006845 -0.418802
v 0.061874 1.215221 -0.103987
v 0.061874 1.215221 0.235375
v 0.061874 1.189529 0.261228
v 0.061874 1.189529 -0.129840
v 0.036377 1.578384 0.268783
v 0.036377 1.845981 0.413153
v 0.036377 1.845981 0.413153
v 0.036377 1.845980 -0.281765
v 0.075147 1.845980 -0.281765
v 0.075147 1.845981 0.413153
v 0.036377 1.900139 -0.335923
v 0.036377 1.900139 0.467311
v 0.077252 1.900139 0.467311
v 0.077252 1.900139 -0.335923
v 0.036377 1.900139 0.467311
v 0.036377 1.900139 -0.335923
v 0.036377 1.983017 -0.418802
v 0.036377 1.983017 0.550190
v -0.056681 1.541242 -0.100019
v -0.056681 1.541242 0.231407
v -0.060637 1.545185 0.235375
v -0.060637 1.545185 -0.103987
v -0.053105 1.578384 -0.137396
v -0.053105 1.578384 0.268783
v -0.035139 1.578384 0.268783
v -0.035139 1.578384 -0.137396
v -0.035139 1.578384 0.268783
v -0.035139 1.845981 0.413153
v -0.035139 1.845981 0.413153
v -0.073909 1.845981 0.413153
v -0.073909 1.845980 -0.281765
v -0.035139 1.845980 -0.281765
v -0.076015 1.900139 -0.335923
v -0.076015 1.900139 0.467311
v -0.035139 1.900139 0.467311
v -0.035139 1.900139 -0.335923
v -0.035139 1.900139 0.467311
v -0.035139 1.983017 0.550190
v -0.035139 1.983017 -0.418802
v -0.035139 1.900139 -0.335923
v -0.025001 1.993155 0.550190
v 0.026239 1.993155 0.550190
v 0.036377 1.183550 0.268784
v 0.036377 1.183550 -0.137396
v 0.054343 1.183550 -0.137396
v 0.054343 1.183550 0.268784
v 0.054343 1.183550 0.268784
v 0.061874 1.189529 0.261228
v 0.036377 0.140329 -0.281765
v 0.036377 0.140330 0.413153
v 0.075147 0.140330 0.413153
v 0.075147 0.140329 -0.281765
v 0.036377 0.086171 0.467311
v 0.036377 0.086171 -0.335923
v 0.077252 0.086171 -0.335923
v 0.077252 0.086171 0.467311
v 0.077252 0.086171 0.467311
v 0.077252 0.086171 -0.335923
v 0.083594 0.092513 -0.329582
v 0.083594 0.092513 0.460970
v 0.026239 -0.006845 0.550190
v 0.036377 0.003293 0.550190
v 0.036377 1.183550 -0.137396
v 0.036377 1.183550 0.268784
v 0.036377 0.140330 0.413153
v -0.035139 1.183550 0.268784
v -0.053105 1.183550 0.268784
v -0.053105 1.183550 -0.137396
v -0.035139 1.183550 -0.137396
v -0.053105 1.183550 0.268784
v -0.060637 1.189529 0.261228
v -0.073909 0.140329 -0.281765
v -0.073909 0.140330 0.413153
v -0.035139 0.140330 0.413153
v -0.035139 0.140329 -0.281765
v -0.035139 0.086171 0.467311
v -0.076015 0.086171 0.467311
v -0.076015 0.086171 -0.335923
v -0.035139 0.086171 -0.335923
v -0.076015 0.086171 0.467311
v -0.082356 0.092513 0.460970
v -0.082356 0.092513 -0.329582
v -0.076015 0.086171 -0.335923
v 0.026239 -0.006845 0.550190
v -0.025001 -0.006845 0.550190
v -0.025001 -0.006845 0.550190
v -0.035139 0.003293 0.550190
v -0.035139 0.140330 0.413153
v -0.035139 1.183550 0.268784
v -0.035139 0.086171 0.467311
v -0.035139 0.003293 0.550190
v -0.035139 1.983017 0.550190
v -0.035139 1.900139 0.467311
v -0.035139 0.140330 0.413153
v -0.073909 0.140330 0.413153
v -0.073909 1.845981 0.413153
v -0.035139 1.845981 0.413153
v -0.035139 1.900139 0.467311
v -0.076015 1.900139 0.467311
v -0.076015 0.086171 0.467311
v -0.035139 0.086171 0.467311
v -0.082356 0.131883 0.421600
v -0.082356 0.092513 0.460970
v -0.082356 1.893797 0.460970
v -0.082356 1.854427 0.421600
v -0.035139 1.183550 0.268784
v -0.060637 1.215221 0.235375
v -0.060637 1.189529 0.261228
v -0.060637 1.570876 0.261228
v -0.060637 1.545185 0.235375
v -0.056681 1.219164 0.231407
v -0.056681 1.541242 0.231407
v 0.057919 1.541242 0.231407
v 0.057919 1.219164 0.231407
v -0.035139 1.578384 0.268783
v -0.053105 1.578384 0.268783
v -0.053105 1.183550 0.268784
v -0.035139 1.183550 0.268784
v -0.025001 0.003293 0.560328
v -0.025001 1.983017 0.560327
v -0.025001 1.983017 0.560327
v 0.026239 1.983017 0.560327
v 0.026239 0.003293 0.560328
v 0.026239 1.983017 0.560327
v -0.025001 1.983017 0.560327
v -0.025001 0.003293 0.560328
v -0.076015 1.900139 0.467311
v -0.082356 1.893797 0.460970
v -0.082356 0.092513 0.460970
v -0.076015 0.086171 0.467311
v -0.082356 1.854427 0.421600
v -0.073909 1.845981 0.413153
v -0.073909 0.140330 0.413153
v -0.082356 0.131883 0.421600
v -0.060637 1.189529 0.261228
v -0.053105 1.183550 0.268784
v -0.056681 1.219164 0.231407
v -0.060637 1.215221 0.235375
v 0.036377 0.086171 0.467311
v 0.036377 1.900139 0.467311
v 0.036377 1.983017 0.550190
v 0.036377 0.003293 0.550190
v 0.036377 0.140330 0.413153
v 0.036377 1.845981 0.413153
v 0.075147 1.845981 0.413153
v 0.075147 0.140330 0.413153
v 0.036377 1.900139 0.467311
v 0.036377 0.086171 0.467311
v 0.077252 0.086171 0.467311
v 0.077252 1.900139 0.467311
v 0.083594 0.131883 0.421600
v 0.083594 1.854427 0.421600
v 0.083594 1.893797 0.460970
v 0.083594 0.092513 0.460970
v 0.061874 1.215221 0.235375
v 0.061874 1.189529 0.261228
v 0.036377 1.578384 0.268783
v 0.036377 1.183550 0.268784
v 0.054343 1.183550 0.268784
v 0.054343 1.578384 0.268783
v 0.026239 0.003293 0.560328
v 0.026239 1.983017 0.560327
v 0.077252 1.900139 0.467311
v 0.077252 0.086171 0.467311
v 0.083594 0.092513 0.460970
v 0.083594 1.893797 0.460970
v 0.083594 1.854427 0.421600
v 0.083594 0.131883 0.421600
v 0.075147 0.140330 0.413153
v 0.075147 1.845981 0.413153
v 0.054343 1.183550 0.268784
v 0.061874 1.189529 0.261228
v 0.061874 1.545185 0.235375
v 0.061874 1.215221 0.235375
v 0.057919 1.219164 0.231407
v 0.057919 1.541242 0.231407
v 0.061874 1.545185 -0.103987
v 0.061874 1.545185 0.235375
v 0.057919 1.541242 0.231407
v 0.057919 1.541242 -0.100019
v -0.035139 1.202953 0.245372
v -0.035139 1.553442 0.245372
v -0.035139 1.553442 -0.113984
v -0.035139 1.202952 -0.113984
v 0.036377 1.202953 0.245372
v 0.036377 1.202952 -0.113984
v 0.036377 1.553442 -0.113984
v 0.036377 1.553442 0.245372
vn -0.0000 1.0000 -0.0000
vn -1.0000 -0.0000 -0.0000
vn -0.0000 -0.0000 1.0000
vn -0.0000 -0.0000 -1.0000
vn -0.8756 -0.3416 -0.3416
vn -0.3416 -0.3416 -0.8756
vn -0.3416 -0.8756 -0.3416
vn -0.3416 0.8756 -0.3416
vn -0.3416 0.3416 -0.8756
vn -0.8756 0.3416 -0.3416
vn -0.0000 -1.0000 -0.0000
vn 0.3415 0.8756 -0.3416
vn 0.3416 0.3416 -0.8756
vn 0.3415 -0.3416 -0.8756
vn -0.3416 -0.3415 -0.8756
vn -0.8756 0.3416 0.3416
vn -0.3416 0.8756 0.3416
vn -0.9054 0.3002 -0.3002
vn -0.3914 0.6507 -0.6507
vn -0.3914 -0.6507 -0.6507
vn -0.9054 -0.3002 -0.3002
vn -0.3914 0.6506 -0.6508
vn -0.9054 0.3001 0.3002
vn -0.3914 0.6506 0.6508
vn -0.5743 -0.5789 0.5789
vn -0.9878 -0.1101 0.1100
vn -0.9878 0.1101 0.1100
vn -0.5766 0.5789 0.5766
vn -0.9878 0.1100 0.1101
vn -0.9878 0.1100 -0.1101
vn -0.5766 0.5766 -0.5789
vn -0.5742 0.5789 0.5789
vn -0.9878 -0.1100 0.1101
vn -0.5766 -0.5766 0.5789
vn -0.5742 -0.5789 -0.5789
vn -0.9878 -0.1100 -0.1101
vn -0.9054 0.3009 -0.2994
vn -0.3913 0.6506 -0.6508
vn -0.3745 -0.6500 -0.6613
vn -0.8888 -0.3511 -0.2945
vn -0.3913 0.6505 -0.6509
vn -0.9054 0.3010 0.2994
vn -0.5742 -0.5796 0.5782
vn -0.9878 -0.1099 0.1101
vn -0.5771 0.5797 0.5753
vn -0.9878 0.1099 0.1102
vn -0.9878 0.1099 -0.1101
vn -0.5760 0.5779 -0.5782
vn -0.5742 0.5796 0.5782
vn 1.0000 -0.0000 -0.0000
vn 0.8756 -0.3416 -0.3416
vn 0.3416 -0.8756 -0.3416
vn 0.3416 -0.3416 -0.8756
vn 0.3416 0.8756 -0.3416
vn 0.8756 0.3416 -0.3416
vn 0.3416 0.8756 0.3416
vn 0.8756 0.3416 0.3416
vn 0.3914 -0.6507 -0.6507
vn 0.3914 0.6507 -0.6507
vn 0.9054 0.3002 -0.3002
vn 0.9054 -0.3002 -0.3002
vn 0.9054 0.3001 -0.3002
vn 0.3914 0.6506 -0.6508
vn 0.3914 0.6506 0.6508
vn 0.9054 0.3002 0.3002
vn 0.9878 0.1101 0.1100
vn 0.9878 -0.1101 0.1100
vn 0.5766 -0.5789 0.5766
vn 0.5743 0.5789 0.5789
vn 0.5743 0.5789 -0.5789
vn 0.9878 0.1100 -0.1101
vn 0.9878 0.1100 0.1101
vn 0.5765 0.5766 0.5789
vn 0.5743 -0.5789 0.5789
vn 0.9878 -0.1100 0.1101
vn 0.9878 -0.1100 -0.1101
vn 0.5765 -0.5766 -0.5789
vn 0.3745 -0.6500 -0.6613
vn 0.9054 0.3009 -0.2994
vn 0.8888 -0.3511 -0.2945
vn 0.3913 0.6505 -0.6509
vn 0.3913 0.6505 0.6509
vn 0.9054 0.3010 0.2995
vn 0.7082 -0.0000 0.7060
vn 0.7060 0.7082 -0.0000
vn -0.3415 -0.3416 -0.8756
vn 0.3415 -0.8756 -0.3416
vn -0.5760 -0.5779 0.5782
vn -0.5743 -0.5796 -0.5781
vn -0.3415 0.8756 0.3416
vn 0.8889 -0.3510 0.2945
vn 0.3744 -0.6500 0.6613
vn 0.9054 -0.3001 0.3002
vn 0.3914 -0.6506 0.6508
vn 0.3914 -0.6506 -0.6508
vn 0.8756 -0.3416 0.3416
vn 0.3416 -0.8756 0.3416
vn -0.3745 -0.6500 0.6613
vn -0.8888 -0.3510 0.2945
vn -0.3914 -0.6506 -0.6508
vn -0.3914 -0.6506 0.6508
vn -0.9054 -0.3002 0.3002
vn -0.3415 -0.8756 0.3416
vn -0.3416 -0.8756 0.3416
vn -0.8756 -0.3416 0.3416
vn -0.3416 -0.3416 0.8756
vn -0.3416 0.3416 0.8756
vn 0.3416 0.3416 0.8756
vn -0.3415 0.3416 0.8756
vn -0.3415 -0.3416 0.8756
vn 0.3416 -0.3416 0.8756
vn 0.3415 0.3416 0.8756
vn -0.3416 0.3415 0.8756
vn -0.3914 -0.6507 0.6507
vn -0.3914 0.6507 0.6507
vn -0.9054 0.3002 0.3002
vn -0.9878 0.1101 -0.1100
vn -0.9878 -0.1101 -0.1100
vn -0.5766 -0.5789 -0.5766
vn -0.5743 0.5789 -0.5789
vn -0.3745 -0.6500 0.6612
vn -0.8889 -0.3510 0.2944
vn -0.5742 0.5796 -0.5782
vn 0.3914 0.6507 0.6507
vn 0.3914 -0.6507 0.6507
vn 0.9054 -0.3002 0.3002
vn 0.5743 -0.5789 -0.5789
vn 0.9878 -0.1101 -0.1100
vn 0.9878 0.1101 -0.1100
vn 0.5766 0.5789 -0.5766
vn 0.3745 -0.6500 0.6613
vn 0.8889 -0.3510 0.2944
vn 0.7082 -0.0000 -0.7060
vn 0.7060 -0.7082 -0.0000
vt 0.163784 0.888121
vt 0.163784 0.857697
vt 0.075796 0.857697
vt 0.075796 0.888121
vt 0.509653 0.944474
vt 0.548742 0.905372
vt 0.548738 0.049694
vt 0.509648 0.010592
vt 0.966715 0.944451
vt 0.927625 0.905360
vt 0.909454 0.520004
vt 0.919605 0.520004
vt 0.919602 0.073394
vt 0.909450 0.073394
vt 0.893669 0.059216
vt 0.882967 0.059216
vt 0.882968 0.534184
vt 0.893671 0.534184
vt 0.260177 0.821505
vt 0.073802 0.821503
vt 0.071591 0.824631
vt 0.262389 0.824632
vt 0.896019 0.532523
vt 0.906326 0.522216
vt 0.906323 0.071183
vt 0.896015 0.060874
vt 0.878923 0.761471
vt 0.889375 0.771923
vt 0.889374 0.562043
vt 0.878922 0.572495
vt 0.567193 0.691311
vt 0.620113 0.308909
vt 0.620113 0.164179
vt 0.567193 0.066089
vt 0.753368 0.827784
vt 0.747008 0.820714
vt 0.659086 0.833540
vt 0.653245 0.841425
vt 0.249289 0.857697
vt 0.249290 0.888121
vt 0.651653 0.844666
vt 0.652311 0.849546
vt 0.757930 0.833178
vt 0.755277 0.830261
vt 0.605627 0.876568
vt 0.628612 0.779905
vt 0.622641 0.772262
vt 0.596560 0.882195
vt 0.503178 0.945607
vt 0.508527 0.950959
vt 0.508524 0.004109
vt 0.503178 0.009459
vt 0.341993 0.857912
vt 0.341993 0.888336
vt 0.429980 0.888336
vt 0.429980 0.857912
vt 0.270545 0.979917
vt 0.270545 0.993332
vt 0.274298 0.993332
vt 0.274298 0.979917
vt 0.792687 0.993333
vt 0.792687 0.979916
vt 0.966710 0.010611
vt 0.967837 0.004138
vt 0.264600 0.827760
vt 0.069379 0.827758
vt 0.875750 0.574738
vt 0.875752 0.759229
vt 0.257966 0.818377
vt 0.076014 0.818375
vt 0.592944 0.883667
vt 0.620545 0.769560
vt 0.659919 0.831893
vt 0.745740 0.819375
vt 0.768889 0.731762
vt 0.767169 0.732441
vt 0.745800 0.819314
vt 0.777290 0.726641
vt 0.434984 0.052795
vt 0.434985 0.908473
vt 0.474074 0.947575
vt 0.474072 0.013693
vt 0.056101 0.908463
vt 0.017012 0.947553
vt 0.373924 0.115499
vt 0.373922 0.740730
vt 0.388134 0.740730
vt 0.388135 0.115499
vt 0.425208 0.760579
vt 0.425215 0.095649
vt 0.410231 0.095648
vt 0.410226 0.760579
vt 0.101663 0.082476
vt 0.116095 0.096908
vt 0.377020 0.096909
vt 0.391452 0.082477
vt 0.392514 0.112403
vt 0.392511 0.743825
vt 0.406942 0.758257
vt 0.406944 0.097973
vt 0.391450 0.773753
vt 0.377019 0.759321
vt 0.116094 0.759321
vt 0.101662 0.773752
vt 0.321003 0.213590
vt 0.321002 0.358323
vt 0.796052 0.755214
vt 0.786702 0.843540
vt 0.794007 0.849622
vt 0.803699 0.749070
vt 0.799573 0.853967
vt 0.811775 0.747817
vt 0.806875 0.747353
vt 0.796556 0.851432
vt 0.594154 0.736888
vt 0.600745 0.743747
vt 0.691060 0.728539
vt 0.696788 0.720544
vt 0.475198 0.954058
vt 0.480544 0.948708
vt 0.475198 0.007207
vt 0.480548 0.012560
vt 0.698328 0.717272
vt 0.697564 0.712402
vt 0.589128 0.731634
vt 0.591840 0.734477
vt 0.015885 0.007242
vt 0.017011 0.013714
vt 0.393775 0.079192
vt 0.099339 0.079189
vt 0.119190 0.754942
vt 0.373922 0.754942
vt 0.373924 0.101287
vt 0.119191 0.101287
vt 0.794440 0.756110
vt 0.785284 0.842357
vt 0.699313 0.867142
vt 0.698701 0.868887
vt 0.788933 0.979914
vt 0.792687 0.979914
vt 0.792687 0.966499
vt 0.788933 0.966499
vt 0.693916 0.877479
vt 0.119191 0.115499
vt 0.172112 0.213590
vt 0.393775 0.064208
vt 0.099339 0.064205
vt 0.056100 0.052804
vt 0.607486 0.875812
vt 0.629784 0.781343
vt 0.587781 0.882509
vt 0.618011 0.766634
vt 0.769002 0.164179
vt 0.821922 0.066089
vt 0.255754 0.815249
vt 0.078226 0.815247
vt 0.266812 0.830888
vt 0.067167 0.830886
vt 0.927621 0.049702
vt 0.016856 0.979918
vt 0.016856 0.993333
vt 0.692685 0.880644
vt 0.693997 0.885398
vt 0.119190 0.740730
vt 0.099339 0.777038
vt 0.099339 0.792021
vt 0.393775 0.792024
vt 0.393775 0.777040
vt 0.015885 0.954027
vt 0.172112 0.358323
vt 0.785209 0.726411
vt 0.780406 0.725286
vt 0.865459 0.759229
vt 0.865457 0.574738
vt 0.902607 0.773606
vt 0.902606 0.560360
vt 0.891755 0.560360
vt 0.891755 0.773606
vt 0.535244 0.966498
vt 0.535244 0.979914
vt 0.967840 0.950922
vt 0.821921 0.691311
vt 0.769002 0.308909
vt 0.838766 0.075690
vt 0.838770 0.522300
vt 0.848921 0.522300
vt 0.848917 0.075690
vt 0.875404 0.536478
vt 0.875404 0.061511
vt 0.864701 0.061511
vt 0.864702 0.536478
vt 0.852045 0.073479
vt 0.852048 0.524511
vt 0.862357 0.534820
vt 0.862353 0.063171
vt 0.710799 0.777625
vt 0.717016 0.771010
vt 0.256487 0.857912
vt 0.256487 0.888336
vt 0.718261 0.763669
vt 0.718395 0.768231
vt 0.973181 0.945580
vt 0.973180 0.009482
vt 0.013102 0.993333
vt 0.013102 0.979918
vt 0.531491 0.979914
vt 0.531491 0.966498
vt 0.013102 0.966498
vt 0.013102 0.979916
vt 0.709858 0.779047
vt 0.104979 0.740730
vt 0.104979 0.115499
vt 0.082887 0.095650
vt 0.067905 0.095650
vt 0.067899 0.760581
vt 0.082883 0.760581
vt 0.086170 0.758256
vt 0.100600 0.743826
vt 0.100603 0.112404
vt 0.086171 0.097972
vt 0.573798 0.835823
vt 0.582054 0.830531
vt 0.565723 0.835812
vt 0.570544 0.836795
vt 0.010541 0.948683
vt 0.010545 0.012584
vt 0.602023 0.745079
vt 0.583752 0.829811
vt 0.690254 0.730203
vt 0.761702 0.171808
vt 0.628393 0.171854
vt 0.628438 0.301874
vt 0.761747 0.301828
vt 0.178772 0.222150
vt 0.178772 0.352171
vt 0.312082 0.352171
vt 0.312082 0.222150
s 0
usemtl Door
f 4/1/1 1/2/1 2/3/1
f 2/3/1 3/4/1 4/1/1
f 8/5/2 5/6/2 6/7/2
f 6/7/2 7/8/2 8/5/2
f 12/6/2 9/5/2 10/9/2
f 10/9/2 11/10/2 12/6/2
f 16/11/3 13/12/3 14/13/3
f 14/13/3 15/14/3 16/11/3
f 20/15/4 17/16/4 18/17/4
f 18/17/4 19/18/4 20/15/4
f 24/19/2 21/20/2 22/21/2
f 22/21/2 23/22/2 24/19/2
f 28/23/2 25/24/2 26/25/2
f 26/25/2 27/26/2 28/23/2
f 32/27/2 29/28/2 30/29/2
f 30/29/2 31/30/2 32/27/2
f 36/31/2 33/32/2 34/33/2
f 34/33/2 35/34/2 36/31/2
f 40/35/2 37/36/2 38/37/2
f 38/37/2 39/38/2 40/35/2
f 44/39/3 41/2/3 42/1/3
f 42/1/3 43/40/3 44/39/3
f 48/41/4 45/42/4 46/43/4
f 46/43/4 47/44/4 48/41/4
f 52/45/2 49/46/2 50/47/2
f 50/47/2 51/48/2 52/45/2
s 1
f 53/5/5 54/49/6 55/50/7
f 56/51/8 57/52/9 58/8/10
s 0
f 62/53/11 59/54/11 60/55/11
f 60/55/11 61/56/11 62/53/11
s 1
f 58/8/10 57/52/9 54/49/6
f 54/49/6 53/5/5 58/8/10
f 66/57/8 63/58/12 64/59/13
f 64/59/13 65/60/9 66/57/8
f 64/59/13 67/61/14 68/62/15
f 68/62/15 65/60/9 64/59/13
f 56/51/8 58/8/10 69/63/16
f 69/63/16 70/64/17 56/51/8
f 74/26/18 71/15/19 72/18/20
f 72/18/20 73/23/21 74/26/18
f 78/65/22 75/22/18 76/21/23
f 76/21/23 77/66/24 78/65/22
f 82/14/25 79/25/26 80/24/27
f 80/24/27 81/11/28 82/14/25
f 86/27/29 83/30/30 84/67/31
f 84/67/31 85/68/32 86/27/29
f 90/19/33 87/69/34 88/70/35
f 88/70/35 89/20/36 90/19/33
f 94/38/37 91/41/38 92/44/39
f 92/44/39 93/35/40 94/38/37
f 98/71/41 95/48/37 96/47/42
f 96/47/42 97/72/24 98/71/41
f 102/73/43 99/37/44 100/36/29
f 100/36/29 101/74/45 102/73/43
f 100/36/46 103/75/47 104/76/48
f 104/76/48 105/77/49 100/36/46
s 0
f 37/36/2 40/35/2 106/78/2
f 106/78/2 107/75/2 37/36/2
f 111/79/50 108/80/50 109/81/50
f 109/81/50 110/82/50 111/79/50
f 115/81/50 112/80/50 113/83/50
f 113/83/50 114/84/50 115/81/50
f 119/85/3 116/86/3 117/87/3
f 117/87/3 118/88/3 119/85/3
f 123/89/4 120/90/4 121/91/4
f 121/91/4 122/92/4 123/89/4
f 127/93/50 124/94/50 125/95/50
f 125/95/50 126/96/50 127/93/50
f 131/97/50 128/98/50 129/99/50
f 129/99/50 130/100/50 131/97/50
f 135/101/50 132/102/50 133/103/50
f 133/103/50 134/104/50 135/101/50
f 139/105/50 136/106/50 137/86/50
f 137/86/50 138/85/50 139/105/50
f 143/107/50 140/108/50 141/109/50
f 141/109/50 142/110/50 143/107/50
f 147/111/4 144/112/4 145/113/4
f 145/113/4 146/114/4 147/111/4
f 151/115/50 148/116/50 149/117/50
f 149/117/50 150/118/50 151/115/50
s 1
f 152/81/51 153/119/52 154/120/53
f 155/121/54 156/82/55 157/122/13
s 0
f 161/123/1 158/124/1 159/125/1
f 159/125/1 160/126/1 161/123/1
s 1
f 154/120/53 157/122/13 156/82/55
f 156/82/55 152/81/51 154/120/53
f 156/82/55 155/121/54 162/127/56
f 162/127/56 163/128/57 156/82/55
f 167/92/58 164/91/59 165/100/60
f 165/100/60 166/99/61 167/92/58
f 171/96/62 168/129/63 169/130/64
f 169/130/64 170/93/65 171/96/62
f 175/98/66 172/97/67 173/88/68
f 173/88/68 174/87/69 175/98/66
f 179/131/70 176/103/71 177/102/72
f 177/102/72 178/132/73 179/131/70
f 183/133/74 180/95/75 181/94/76
f 181/94/76 182/134/77 183/133/74
f 187/114/78 184/113/63 185/110/79
f 185/110/79 186/109/80 187/114/78
f 191/118/79 188/123/81 189/126/82
f 189/126/82 190/115/83 191/118/79
s 0
f 195/108/84 192/107/84 193/135/84
f 193/135/84 194/136/84 195/108/84
f 199/137/85 196/138/85 197/108/85
f 197/108/85 198/136/85 199/137/85
s 1
f 203/139/7 200/140/86 201/141/53
f 201/141/53 202/142/87 203/139/7
s 0
f 207/109/50 204/108/50 205/138/50
f 205/138/50 206/143/50 207/109/50
f 209/144/50 208/145/50 139/105/50
f 139/105/50 138/85/50 209/144/50
f 213/134/11 210/144/11 211/85/11
f 211/85/11 212/133/11 213/134/11
f 217/129/1 214/146/1 215/147/1
f 215/147/1 216/130/1 217/129/1
f 221/128/50 218/148/50 219/79/50
f 219/79/50 220/82/50 221/128/50
s 1
f 225/45/44 222/149/88 223/150/89
f 223/150/89 224/46/36 225/45/44
s 0
f 229/151/1 226/71/1 227/72/1
f 227/72/1 228/152/1 229/151/1
f 34/33/2 230/153/2 231/154/2
f 231/154/2 35/34/2 34/33/2
f 235/155/11 232/156/11 233/70/11
f 233/70/11 234/69/11 235/155/11
f 239/157/1 236/65/1 237/66/1
f 237/66/1 238/158/1 239/157/1
f 243/7/2 240/159/2 241/63/2
f 241/63/2 242/8/2 243/7/2
s 1
f 63/58/12 66/57/8 244/160/90
f 244/160/90 245/161/56 63/58/12
s 0
f 249/162/11 246/163/11 247/111/11
f 247/111/11 248/114/11 249/162/11
s 1
f 251/143/91 250/162/92 187/114/78
f 187/114/78 186/109/80 251/143/91
s 0
f 255/132/1 252/86/1 253/164/1
f 253/164/1 254/131/1 255/132/1
f 259/165/11 256/166/11 257/167/11
f 257/167/11 258/168/11 259/165/11
s 1
f 263/104/93 260/165/94 261/168/95
f 261/168/95 262/101/61 263/104/93
f 265/84/96 264/169/97 153/119/52
f 153/119/52 152/81/51 265/84/96
s 0
f 137/86/50 266/106/50 267/170/50
f 267/170/50 268/164/50 137/86/50
f 272/43/11 269/171/11 270/172/11
f 270/172/11 271/44/11 272/43/11
s 1
f 92/44/39 273/172/98 274/78/99
f 274/78/99 93/35/40 92/44/39
s 0
f 278/173/1 275/68/1 276/67/1
f 276/67/1 277/174/1 278/173/1
f 282/175/11 279/176/11 280/177/11
f 280/177/11 281/178/11 282/175/11
s 1
f 286/178/100 283/177/101 284/29/102
f 284/29/102 285/28/21 286/178/100
f 202/142/87 287/179/97 288/180/103
f 288/180/103 203/139/7 202/142/87
f 55/50/7 289/181/104 290/9/105
f 290/9/105 53/5/5 55/50/7
s 0
f 33/32/2 36/31/2 291/182/2
f 291/182/2 292/183/2 33/32/2
f 296/159/2 293/10/2 294/9/2
f 294/9/2 295/63/2 296/159/2
f 300/184/4 297/185/4 298/186/4
f 298/186/4 299/187/4 300/184/4
f 304/188/3 301/189/3 302/190/3
f 302/190/3 303/191/3 304/188/3
f 308/192/2 305/193/2 306/194/2
f 306/194/2 307/195/2 308/192/2
f 230/153/2 309/183/2 291/182/2
f 291/182/2 231/154/2 230/153/2
f 313/46/2 310/196/2 311/197/2
f 311/197/2 312/47/2 313/46/2
f 317/198/4 314/199/4 315/54/4
f 315/54/4 316/53/4 317/198/4
f 321/200/3 318/152/3 319/72/3
f 319/72/3 320/201/3 321/200/3
s 1
f 290/9/105 289/181/104 322/202/106
f 70/64/17 69/63/16 323/203/107
f 322/202/106 323/203/107 69/63/16
f 69/63/16 290/9/105 322/202/106
f 325/204/108 245/161/56 244/160/90
f 244/160/90 324/205/109 325/204/108
f 329/206/110 326/207/111 327/208/112
f 327/208/112 328/209/113 329/206/110
f 333/191/114 330/190/115 331/195/116
f 331/195/116 332/194/102 333/191/114
f 337/193/117 334/192/118 335/187/119
f 335/187/119 336/186/120 337/193/117
f 339/201/121 97/72/24 96/47/42
f 96/47/42 338/197/122 339/201/121
f 341/196/47 224/46/36 223/150/89
f 223/150/89 340/210/123 341/196/47
s 0
f 345/84/50 342/83/50 343/148/50
f 343/148/50 344/128/50 345/84/50
f 349/211/4 346/164/4 347/144/4
f 347/144/4 348/212/4 349/211/4
f 353/213/3 350/214/3 351/215/3
f 351/215/3 352/216/3 353/213/3
f 357/217/50 354/218/50 355/219/50
f 355/219/50 356/220/50 357/217/50
f 268/164/50 267/170/50 208/145/50
f 208/145/50 209/144/50 268/164/50
f 359/221/50 358/222/50 148/116/50
f 148/116/50 151/115/50 359/221/50
f 363/126/3 360/125/3 361/223/3
f 361/223/3 362/224/3 363/126/3
s 1
f 265/84/96 364/225/111 264/169/97
f 162/127/56 365/226/108 163/128/57
f 163/128/57 365/226/108 364/225/111
f 364/225/111 265/84/96 163/128/57
f 369/220/65 366/213/124 367/216/125
f 367/216/125 368/217/126 369/220/65
f 373/212/127 370/219/128 371/218/129
f 371/218/129 372/211/130 373/212/127
f 190/115/83 189/126/82 374/224/131
f 374/224/131 375/221/132 190/115/83
s 0
f 379/227/133 376/116/133 377/222/133
f 377/222/133 378/228/133 379/227/133
s 1
f 326/207/111 329/206/110 288/180/103
f 288/180/103 287/179/97 326/207/111
s 0
f 383/229/134 380/117/134 381/116/134
f 381/116/134 382/227/134 383/229/134
f 387/230/2 384/231/2 385/232/2
f 385/232/2 386/233/2 387/230/2
f 391/234/50 388/235/50 389/236/50
f 389/236/50 390/237/50 391/234/50
